<?xml version="1.0" encoding="utf-8"?>
<!-- Generator: Adobe Illustrator 19.2.1, SVG Export Plug-In . SVG Version: 6.00 Build 0)  -->
<!DOCTYPE svg PUBLIC "-//W3C//DTD SVG 1.1//EN" "http://www.w3.org/Graphics/SVG/1.1/DTD/svg11.dtd">
<svg version="1.1" id="Layer_1" xmlns="http://www.w3.org/2000/svg" xmlns:xlink="http://www.w3.org/1999/xlink" x="0px" y="0px"
	 viewBox="0 0 180 230.4" style="enable-background:new 0 0 180 230.4;" xml:space="preserve">
<style type="text/css">
	.st0{fill:#FFFFFF;}
	.st1{fill:#E74C37;}
	.st2{fill:#456DAA;}
</style>
<path class="st0" d="M90,5.8C50.8,5.8,4.5,9.4,4.5,9.4v68.2v68.2c0,5.7,1.9,12.1,5,17.9c3.1,5.8,7.3,11,12,14.2l34.3,23.4L90,224.6
	l42.7-29.2l25.8-17.6c4.7-3.2,8.9-8.4,12-14.2c3.1-5.8,5-12.3,5-17.9V77.6V9.4C175.5,9.4,129.2,5.8,90,5.8"/>
<path class="st1" d="M141.4,131.4c0-0.7-0.4-1.1-1.1-1.1h-4.9c-0.7,0-1.1-0.4-1.1-1.1v-3.9c0-0.7,0.4-1.1,1.1-1.1h18
	c0.7,0,1.1,0.4,1.1,1.1v3.9c0,0.7-0.4,1.1-1.1,1.1h-4.9c-0.7,0-1.1,0.4-1.1,1.1v16.5c0,0.7-0.4,1.1-1.1,1.1h-3.9
	c-0.7,0-1.1-0.4-1.1-1.1V131.4z"/>
<path class="st2" d="M145.3,75.1h4.3c0.2,0,0.5,0.1,0.7,0.3c0.2,0.2,0.3,0.4,0.3,0.7l0,7.3c0,0.6-0.4,1.2-1.2,1.8
	c-0.5,0.4-1.3,0.8-2.1,1.2c-0.5,0.2-1.3,0.5-1.9,0.8V75.1z M162.3,119.5l-6.8-27.8c2.6-2.1,4.1-5.6,4.1-9.8V78c0-0.8,0-1.9-0.2-3.3
	c0,0,0,0,0,0c-0.9-5.2-3.8-8.4-7.9-8.4l-14.3,0c-0.4,0-0.7,0.3-0.7,0.7v52.6c0,0.4,0.3,0.7,0.7,0.7h7.4c0.4,0,0.7-0.3,0.7-0.7V96.5
	l2.2-1.1l6,24.4c0.1,0.3,0.4,0.5,0.7,0.5h7.4c0.2,0,0.4-0.1,0.5-0.3C162.3,119.9,162.3,119.7,162.3,119.5"/>
<path class="st1" d="M47.9,48.3c1.7,0,2.5-0.2,2.5-2.4c0-2.2-0.8-2.4-2.5-2.4h-1.9c-0.7,0-1.1,0.4-1.1,1.1v2.7
	c0,0.7,0.4,1.1,1.1,1.1H47.9z M48.2,57.1c1.7,0,2.5-0.2,2.5-1.8c0-1.7-0.8-1.9-2.5-1.9H46c-0.7,0-1.1,0.4-1.1,1.1v1.6
	c0,0.7,0.4,1.1,1.1,1.1H48.2z M47.4,37.5c6.6,0,9.1,2.7,9.1,8.4c0,1.2-0.4,3.5-1.8,5.1c1.4,0.7,2.5,2.4,2.5,4.6
	c0,4.4-1.9,6.5-8.5,6.5H40c-0.7,0-1.1-0.4-1.1-1.1V38.6c0-0.7,0.4-1.1,1.1-1.1H47.4z"/>
<path class="st1" d="M64.5,37.5c0.7,0,1.1,0.4,1.1,1.1V61c0,0.7-0.4,1.1-1.1,1.1h-3.9c-0.7,0-1.1-0.4-1.1-1.1V38.5
	c0-0.7,0.4-1.1,1.1-1.1H64.5z"/>
<path class="st1" d="M74,37.5c0.7,0,1.1,0.4,1.1,1.1V55c0,0.7,0.4,1.1,1.1,1.1h12c0.7,0,1.1,0.4,1.1,1.1V61c0,0.7-0.4,1.1-1.1,1.1
	H70.1c-0.7,0-1.1-0.4-1.1-1.1V38.5c0-0.7,0.4-1.1,1.1-1.1H74z"/>
<path class="st1" d="M83.1,37.5c0.7,0,1.1,0.4,1.1,1.1v7.9c0,0.7,0.4,1.1,1.1,1.1h3c0.7,0,1.1,0.4,1.1,1.1v3.9
	c0,0.7-0.4,1.1-1.1,1.1h-9.1c-0.7,0-1.1-0.4-1.1-1.1V38.6c0-0.7,0.4-1.1,1.1-1.1H83.1z"/>
<path class="st1" d="M97.3,37.5c0.7,0,1.1,0.4,1.1,1.1V61c0,0.7-0.4,1.1-1.1,1.1h-3.9c-0.7,0-1.1-0.4-1.1-1.1V38.5
	c0-0.7,0.4-1.1,1.1-1.1H97.3z"/>
<path class="st1" d="M113.2,47.3c0-2.7-0.2-4.4-2.8-4.4c-2.6,0-2.8,1.7-2.8,4.4v5.1c0,2.7,0.2,4.4,2.8,4.4c2.6,0,2.8-1.7,2.8-4.4
	V47.3z M119.2,54.2c0,2.3-0.5,8.5-8.8,8.5s-8.8-6.2-8.8-8.5v-8.8c0-2.3,0.5-8.5,8.8-8.5s8.8,6.2,8.8,8.5V54.2z"/>
<path class="st1" d="M128.6,37.5c0.6,0,1,0.2,1.2,0.8l4.8,11.7c0.1,0.3,0.4,0.2,0.4-0.1V38.5c0-0.7,0.4-1.1,1.1-1.1h3.9
	c0.7,0,1.1,0.4,1.1,1.1V61c0,0.7-0.4,1.1-1.1,1.1h-5.2c-0.6,0-1-0.2-1.2-0.8l-4.8-11.7c-0.1-0.3-0.4-0.2-0.4,0.1V61
	c0,0.7-0.4,1.1-1.1,1.1h-3.9c-0.7,0-1.1-0.4-1.1-1.1V38.5c0-0.7,0.4-1.1,1.1-1.1H128.6z"/>
<path class="st1" d="M34.6,135.1c1.7,0,2.5-0.2,2.5-2.4c0-2.2-0.8-2.4-2.5-2.4h-1.9c-0.7,0-1.1,0.4-1.1,1.1v2.7
	c0,0.7,0.4,1.1,1.1,1.1H34.6z M34.4,124.3c6.3,0,8.8,2.7,8.8,8.4c0,5.8-2.5,8.4-8.8,8.4h-1.7c-0.7,0-1.1,0.4-1.1,1.1v5.6
	c0,0.7-0.4,1.1-1.1,1.1h-3.9c-0.7,0-1.1-0.4-1.1-1.1v-22.5c0-0.7,0.4-1.1,1.1-1.1H34.4z"/>
<path class="st1" d="M52.6,130.3c-0.6,0-1.1,0.5-1.1,1.1v2.6c0,0.6,0.5,1.1,1.1,1.1h1.8c1.7,0,2.5-0.2,2.5-2.4
	c0-2.2-0.8-2.4-2.5-2.4H52.6z M63.9,147c0.5,0.9-0.1,1.9-1.2,1.9h-4c-0.4,0-0.7-0.2-0.8-0.5l-3.7-7.1c-0.1-0.1-0.2-0.2-0.3-0.2h-1.4
	c-0.6,0-1.1,0.5-1.1,1.1v5.6c0,0.6-0.5,1.1-1.1,1.1h-3.9c-0.6,0-1.1-0.5-1.1-1.1v-22.4c0-0.6,0.5-1.1,1.1-1.1h7.7
	c6.3,0,8.8,2.7,8.8,8.4c0,3.3-0.8,5.6-2.7,6.9c-0.1,0.1-0.2,0.3-0.1,0.5L63.9,147z"/>
<path class="st1" d="M77.5,134c0-2.7-0.2-4.4-2.8-4.4s-2.8,1.7-2.8,4.4v5.1c0,2.7,0.2,4.4,2.8,4.4s2.8-1.7,2.8-4.4V134z M83.5,141
	c0,2.3-0.5,8.5-8.8,8.5c-8.3,0-8.8-6.2-8.8-8.5v-8.8c0-2.3,0.5-8.5,8.8-8.5c8.3,0,8.8,6.2,8.8,8.5V141z"/>
<path class="st1" d="M92,124.3c0.6,0,1.1,0.5,1.1,1.1v26.8c0,2.3-0.5,8.5-8.8,8.5c-7.5,0-8.6-5-8.8-7.7c0-0.5,0.3-0.9,0.8-1l3.9-0.9
	c0.7-0.1,1.3,0.4,1.4,1.1c0.2,1.5,0.8,2.5,2.7,2.5c2.6,0,2.8-1.7,2.8-4.4v-24.9c0-0.6,0.5-1.1,1.1-1.1H92z"/>
<path class="st1" d="M112.3,124.3c0.7,0,1.1,0.4,1.1,1.1v3.9c0,0.7-0.4,1.1-1.1,1.1h-8.5c-0.7,0-1.1,0.4-1.1,1.1v1.1
	c0,0.7,0.4,1.1,1.1,1.1h5.4c0.7,0,1.1,0.3,1.1,1.1v3.9c0,0.7-0.4,1.1-1.1,1.1h-5.4c-0.7,0-1.1,0.4-1.1,1.1v1.1
	c0,0.7,0.4,1.1,1.1,1.1h8.5c0.7,0,1.1,0.4,1.1,1.1v3.9c0,0.7-0.4,1.1-1.1,1.1H97.5c-0.7,0-1.1-0.4-1.1-1.1v-22.5
	c0-0.7,0.4-1.1,1.1-1.1H112.3z"/>
<path class="st1" d="M115.7,132.2c0-2.3,0.5-8.5,8.8-8.5c7.5,0,8.7,5,8.8,7.7c0,0.5-0.3,0.9-0.8,1l-3.9,0.9
	c-0.7,0.1-1.3-0.4-1.4-1.1c-0.2-1.5-0.8-2.5-2.7-2.5c-2.6,0-2.8,1.7-2.8,4.4v5.1c0,2.7,0.2,4.4,2.8,4.4c1.9,0,2.5-0.9,2.7-2.5
	c0.1-0.7,0.7-1.2,1.4-1l4,0.9c0.5,0.1,0.8,0.5,0.8,1c-0.1,2.7-1.3,7.7-8.8,7.7c-8.3,0-8.8-6.2-8.8-8.5V132.2z"/>
<path class="st2" d="M112.2,66.3H91.5c-0.4,0-0.7,0.3-0.7,0.7v7.4c0,0.4,0.3,0.7,0.7,0.7h6v44.6c0,0.4,0.3,0.7,0.7,0.7h7.4
	c0.4,0,0.7-0.3,0.7-0.7V75.1h6c0.4,0,0.7-0.3,0.7-0.7V67C112.9,66.6,112.6,66.3,112.2,66.3"/>
<path class="st2" d="M133.5,66.3h-18c-0.4,0-0.7,0.3-0.7,0.7v52.6c0,0.4,0.3,0.7,0.7,0.7h0h0h18c0.4,0,0.7-0.3,0.7-0.7v-7.4
	c0-0.4-0.3-0.7-0.7-0.7h-10V93.1h8.6c0.4,0,0.7-0.3,0.7-0.7V85c0-0.4-0.3-0.7-0.7-0.7h-8.6v-9.2h10c0.4,0,0.7-0.3,0.7-0.7V67
	C134.2,66.6,133.9,66.3,133.5,66.3"/>
<path class="st2" d="M67.5,66.6c-0.1-0.2-0.3-0.3-0.6-0.3h-7.4c-0.3,0-0.6,0.2-0.7,0.5l-4.3,13.4l-4.3-13.4
	c-0.1-0.3-0.4-0.5-0.7-0.5h-7.4c-0.2,0-0.4,0.1-0.6,0.3c-0.1,0.2-0.2,0.4-0.1,0.6l8.6,26.9v25.5c0,0.4,0.3,0.7,0.7,0.7h7.4
	c0.4,0,0.7-0.3,0.7-0.7V94.1l8.6-26.9C67.6,67,67.6,66.8,67.5,66.6"/>
<path class="st2" d="M33.1,77.1l0,33c0,1-0.8,1.8-1.8,1.8h-1.6c-1,0-1.8-0.8-1.8-1.8v-33c0-1,0.8-1.8,1.8-1.8h1.7
	c0.5,0,0.9,0.2,1.2,0.5C32.9,76.2,33.1,76.7,33.1,77.1 M33,66.3H28c-4.9,0-8.9,4-8.9,8.9V112c0,4.9,4,8.9,8.9,8.9H33
	c4.9,0,8.9-4,8.9-8.9V75.2C41.9,70.3,37.9,66.3,33,66.3"/>
<path class="st2" d="M88.1,96.1l-0.9-1.2c0,0-0.1-0.1-0.1-0.1L76.4,85c-0.1-0.1-0.2-0.3-0.3-0.5C76,84.2,76,83.9,76,83.6v-6.8
	c0-1,0.8-1.8,1.8-1.8h1.6c1,0,1.8,0.8,1.8,1.8v0.3c0,0.1,0,0.2,0,0.2l0,2.5l0,4c0,0.4,0.3,0.7,0.7,0.7h7.4c0.4,0,0.7-0.3,0.7-0.7
	v-8.6c0-4.9-4-8.9-8.9-8.9h-4.9c-4.9,0-8.9,4-8.9,8.9v9.7c0,0.4-0.1,3.2,2.4,6.4c0.5,0.6,0.6,0.8,0.7,0.9c0,0,0.1,0.1,0.1,0.1
	c0,0,0,0,0.1,0.1c0,0,0,0,0,0l10.3,9.2c0.1,0.1,0.2,0.3,0.3,0.6c0.1,0.2,0.1,0.6,0.1,0.7v3.8c0,0,0,0,0,0v3c0,1-0.8,1.8-1.8,1.8
	h-1.6c-1,0-1.8-0.8-1.8-1.8v-8.7c0-0.4-0.3-0.7-0.7-0.7h-7.4c-0.4,0-0.7,0.3-0.7,0.7v10.3c0,4.9,4,8.9,8.9,8.9h4.9
	c4.9,0,8.9-4,8.9-8.9v-8.9c0-0.3,0.1-2.1-0.5-3.9C88.9,97,88.2,96.2,88.1,96.1"/>
<path class="st2" d="M90,0C48.7,0,0,3.8,0,3.8v71.8v71.8c0,5.9,2,12.7,5.2,18.9c3.2,6.1,7.7,11.6,12.6,15l36.1,24.6L90,230.4
	l45-30.7l27.1-18.5c4.9-3.4,9.4-8.8,12.6-15c3.2-6.1,5.2-12.9,5.2-18.9V75.6V3.8C180,3.8,131.3,0,90,0 M90,8.4
	c30.9,0,66.3,2.2,81.6,3.3v64v71.8c0,4.4-1.6,9.8-4.3,15c-2.7,5.2-6.3,9.5-9.9,12l-27.1,18.5L90,220.3l-31.3-21.4l-36.1-24.6
	c-3.6-2.5-7.2-6.8-9.9-12c-2.7-5.2-4.3-10.6-4.3-15V75.6v-64C23.7,10.6,59.1,8.4,90,8.4"/>
</svg>
