<?xml version="1.0" encoding="utf-8"?>
<!-- Generator: Adobe Illustrator 16.0.3, SVG Export Plug-In . SVG Version: 6.00 Build 0)  -->
<!DOCTYPE svg PUBLIC "-//W3C//DTD SVG 1.1//EN" "http://www.w3.org/Graphics/SVG/1.1/DTD/svg11.dtd">
<svg version="1.1" id="Layer_1" xmlns="http://www.w3.org/2000/svg" xmlns:xlink="http://www.w3.org/1999/xlink" x="0px" y="0px"
	 width="390.409px" height="500px" viewBox="432.834 525.994 390.409 500" enable-background="new 432.834 525.994 390.409 500"
	 xml:space="preserve">
<path fill="#FFFFFF" d="M739.692,811.15c0-1.52-0.868-2.387-2.387-2.387h-10.634c-1.52,0-2.388-0.869-2.388-2.387v-8.465
	c0-1.518,0.868-2.387,2.388-2.387h39.063c1.518,0,2.387,0.869,2.387,2.387v8.465c0,1.518-0.869,2.387-2.387,2.387H755.1
	c-1.52,0-2.387,0.867-2.387,2.387v35.809c0,1.518-0.867,2.387-2.387,2.387h-8.464c-1.519,0-2.387-0.869-2.387-2.387V811.15H739.692z
	"/>
<path fill="#FFFFFF" d="M748.156,688.973h9.331c0.436,0,1.086,0.217,1.52,0.65s0.652,0.868,0.652,1.52v15.842
	c0,1.302-0.869,2.604-2.605,3.906c-1.084,0.867-2.82,1.736-4.557,2.604c-1.086,0.435-2.822,1.086-4.124,1.736v-26.258H748.156z
	 M785.049,785.326l-14.758-60.33c5.643-4.557,8.898-12.152,8.898-21.268v-8.463c0-1.736,0-4.123-0.436-7.162l0,0
	c-1.953-11.284-8.246-18.229-17.143-18.229h-31.034c-0.868,0-1.52,0.65-1.52,1.52v114.148c0,0.867,0.651,1.52,1.52,1.52h16.059
	c0.868,0,1.52-0.652,1.52-1.52v-50.13l4.774-2.388l13.021,52.951c0.217,0.652,0.867,1.086,1.52,1.086h16.059
	c0.434,0,0.867-0.217,1.084-0.652C785.049,786.193,785.049,785.76,785.049,785.326"/>
<path fill="#FFFFFF" d="M536.784,630.813c3.689,0,5.426-0.434,5.426-5.209c0-4.773-1.736-5.208-5.426-5.208h-4.123
	c-1.519,0-2.387,0.868-2.387,2.388v5.859c0,1.519,0.868,2.387,2.387,2.387h4.123V630.813z M537.435,649.91
	c3.689,0,5.426-0.435,5.426-3.906c0-3.689-1.736-4.124-5.426-4.124h-4.774c-1.519,0-2.387,0.868-2.387,2.388v3.472
	c0,1.519,0.868,2.388,2.387,2.388h4.774V649.91z M535.699,607.375c14.323,0,19.749,5.859,19.749,18.229
	c0,2.604-0.868,7.596-3.906,11.068c3.038,1.52,5.425,5.208,5.425,9.982c0,9.549-4.123,14.105-18.446,14.105h-18.88
	c-1.52,0-2.388-0.867-2.388-2.387v-48.611c0-1.52,0.868-2.387,2.388-2.387H535.699z"/>
<path fill="#FFFFFF" d="M572.808,607.375c1.52,0,2.388,0.867,2.388,2.387v48.611c0,1.52-0.868,2.387-2.388,2.387h-8.463
	c-1.52,0-2.388-0.867-2.388-2.387v-48.828c0-1.52,0.868-2.387,2.388-2.387h8.463V607.375z"/>
<path fill="#FFFFFF" d="M593.424,607.375c1.52,0,2.388,0.867,2.388,2.387v35.59c0,1.52,0.868,2.388,2.387,2.388h26.042
	c1.52,0,2.387,0.868,2.387,2.388v8.246c0,1.52-0.867,2.387-2.387,2.387h-39.279c-1.52,0-2.388-0.867-2.388-2.387v-48.828
	c0-1.52,0.868-2.387,2.388-2.387h8.463V607.375z"/>
<path fill="#FFFFFF" d="M613.173,607.375c1.519,0,2.387,0.867,2.387,2.387v17.145c0,1.52,0.868,2.387,2.388,2.387h6.51
	c1.52,0,2.388,0.868,2.388,2.387v8.465c0,1.519-0.868,2.387-2.388,2.387h-19.748c-1.52,0-2.387-0.868-2.387-2.387v-30.383
	c0-1.52,0.867-2.387,2.387-2.387H613.173z"/>
<path fill="#FFFFFF" d="M643.989,607.375c1.52,0,2.388,0.867,2.388,2.387v48.611c0,1.52-0.868,2.387-2.388,2.387h-8.463
	c-1.52,0-2.388-0.867-2.388-2.387v-48.828c0-1.52,0.868-2.387,2.388-2.387h8.463V607.375z"/>
<path fill="#FFFFFF" d="M678.495,628.643c0-5.859-0.435-9.549-6.077-9.549c-5.642,0-6.076,3.689-6.076,9.549v11.067
	c0,5.859,0.435,9.548,6.076,9.548c5.643,0,6.077-3.688,6.077-9.548V628.643z M691.515,643.616c0,4.991-1.085,18.446-19.098,18.446
	c-18.012,0-19.097-13.455-19.097-18.446V624.52c0-4.992,1.085-18.447,19.097-18.447c18.013,0,19.098,13.455,19.098,18.447V643.616z"
	/>
<path fill="#FFFFFF" d="M711.915,607.375c1.302,0,2.17,0.434,2.604,1.736l10.417,25.391c0.217,0.65,0.868,0.434,0.868-0.217v-24.74
	c0-1.52,0.868-2.387,2.387-2.387h8.464c1.52,0,2.388,0.867,2.388,2.387v48.828c0,1.52-0.868,2.387-2.388,2.387H725.37
	c-1.303,0-2.171-0.434-2.604-1.736l-10.417-25.391c-0.217-0.65-0.868-0.434-0.868,0.218v24.522c0,1.52-0.868,2.387-2.387,2.387
	h-8.464c-1.519,0-2.387-0.867-2.387-2.387v-48.828c0-1.52,0.868-2.387,2.387-2.387h11.285V607.375z"/>
<path fill="#FFFFFF" d="M507.921,819.18c3.689,0,5.425-0.434,5.425-5.207c0-4.775-1.735-5.209-5.425-5.209h-4.123
	c-1.52,0-2.388,0.867-2.388,2.387v5.859c0,1.52,0.868,2.387,2.388,2.387h4.123V819.18z M507.487,795.742
	c13.672,0,19.098,5.859,19.098,18.23c0,12.586-5.426,18.229-19.098,18.229h-3.688c-1.52,0-2.388,0.867-2.388,2.387v12.152
	c0,1.52-0.868,2.389-2.387,2.389h-8.464c-1.519,0-2.387-0.869-2.387-2.389v-48.828c0-1.518,0.868-2.387,2.387-2.387h16.927V795.742z
	"/>
<path fill="#FFFFFF" d="M546.984,808.764c-1.302,0-2.388,1.084-2.388,2.387v5.643c0,1.303,1.086,2.387,2.388,2.387h3.906
	c3.689,0,5.425-0.434,5.425-5.207c0-4.775-1.735-5.209-5.425-5.209H546.984L546.984,808.764z M571.506,845.006
	c1.085,1.953-0.217,4.123-2.604,4.123h-8.681c-0.867,0-1.519-0.436-1.735-1.086l-8.03-15.408c-0.217-0.217-0.434-0.434-0.65-0.434
	h-3.038c-1.303,0-2.388,1.086-2.388,2.387v12.152c0,1.303-1.085,2.389-2.387,2.389h-8.464c-1.302,0-2.387-1.086-2.387-2.389v-48.611
	c0-1.301,1.085-2.387,2.387-2.387h16.71c13.672,0,19.098,5.859,19.098,18.23c0,7.16-1.736,12.152-5.859,14.973
	c-0.217,0.217-0.435,0.652-0.217,1.086L571.506,845.006z"/>
<path fill="#FFFFFF" d="M601.02,816.793c0-5.859-0.434-9.549-6.076-9.549s-6.076,3.689-6.076,9.549v11.068
	c0,5.859,0.434,9.549,6.076,9.549s6.076-3.689,6.076-9.549V816.793z M614.042,831.984c0,4.99-1.086,18.445-19.098,18.445
	s-19.098-13.455-19.098-18.445v-19.098c0-4.992,1.086-18.445,19.098-18.445s19.098,13.453,19.098,18.445V831.984z"/>
<path fill="#FFFFFF" d="M632.487,795.742c1.303,0,2.388,1.086,2.388,2.387v58.16c0,4.992-1.085,18.447-19.098,18.447
	c-16.275,0-18.663-10.852-19.097-16.711c0-1.084,0.65-1.953,1.736-2.17l8.463-1.953c1.52-0.217,2.821,0.869,3.038,2.387
	c0.435,3.256,1.736,5.426,5.859,5.426c5.643,0,6.077-3.689,6.077-9.549v-54.037c0-1.301,1.085-2.387,2.387-2.387H632.487
	L632.487,795.742z"/>
<path fill="#FFFFFF" d="M676.542,795.742c1.519,0,2.387,0.869,2.387,2.387v8.465c0,1.52-0.868,2.387-2.387,2.387h-18.446
	c-1.52,0-2.388,0.867-2.388,2.387v2.387c0,1.52,0.868,2.389,2.388,2.389h11.719c1.519,0,2.387,0.65,2.387,2.387v8.463
	c0,1.52-0.868,2.387-2.387,2.387h-11.719c-1.52,0-2.388,0.869-2.388,2.389v2.387c0,1.52,0.868,2.387,2.388,2.387h18.446
	c1.519,0,2.387,0.869,2.387,2.389v8.463c0,1.52-0.868,2.387-2.387,2.387h-32.118c-1.52,0-2.388-0.867-2.388-2.387v-48.828
	c0-1.52,0.868-2.387,2.388-2.387h32.118V795.742z"/>
<path fill="#FFFFFF" d="M683.919,812.887c0-4.992,1.085-18.445,19.098-18.445c16.275,0,18.88,10.85,19.097,16.709
	c0,1.086-0.65,1.953-1.736,2.17l-8.463,1.953c-1.52,0.217-2.821-0.867-3.038-2.387c-0.435-3.256-1.736-5.426-5.859-5.426
	c-5.643,0-6.077,3.689-6.077,9.549v11.068c0,5.859,0.435,9.549,6.077,9.549c4.123,0,5.425-1.953,5.859-5.426
	c0.217-1.52,1.519-2.604,3.038-2.17l8.681,1.953c1.085,0.217,1.735,1.084,1.735,2.17c-0.217,5.859-2.82,16.711-19.097,16.711
	c-18.013,0-19.098-13.455-19.098-18.447v-19.531H683.919z"/>
<path fill="#FFFFFF" d="M676.324,669.875h-44.922c-0.868,0-1.519,0.65-1.519,1.52v16.059c0,0.867,0.65,1.52,1.519,1.52h13.021
	v96.787c0,0.869,0.65,1.52,1.519,1.52h16.06c0.868,0,1.519-0.65,1.519-1.52v-96.787h13.021c0.867,0,1.519-0.652,1.519-1.52v-16.059
	C677.843,670.525,677.192,669.875,676.324,669.875"/>
<path fill="#FFFFFF" d="M722.548,669.875h-39.063c-0.868,0-1.52,0.65-1.52,1.52v114.148c0,0.867,0.651,1.52,1.52,1.52l0,0l0,0
	h39.063c0.868,0,1.519-0.652,1.519-1.52v-16.059c0-0.868-0.65-1.52-1.519-1.52h-21.702v-39.93h18.664
	c0.867,0,1.519-0.652,1.519-1.52v-16.059c0-0.869-0.651-1.52-1.519-1.52h-18.664v-19.965h21.702c0.868,0,1.519-0.652,1.519-1.52
	v-16.059C724.067,670.525,723.417,669.875,722.548,669.875"/>
<path fill="#FFFFFF" d="M579.319,670.525c-0.217-0.434-0.651-0.65-1.302-0.65h-16.06c-0.65,0-1.302,0.434-1.519,1.085l-9.332,29.079
	l-9.331-29.079c-0.218-0.651-0.868-1.085-1.52-1.085h-16.059c-0.435,0-0.868,0.217-1.303,0.65c-0.217,0.435-0.434,0.869-0.217,1.303
	l18.663,58.377v55.338c0,0.867,0.651,1.52,1.52,1.52h16.059c0.868,0,1.52-0.652,1.52-1.52v-55.338l18.663-58.377
	C579.536,671.395,579.536,670.96,579.319,670.525"/>
<path fill="#FFFFFF" d="M504.667,693.313v71.614c0,2.171-1.736,3.906-3.906,3.906h-3.473c-2.17,0-3.906-1.735-3.906-3.906v-71.614
	c0-2.17,1.736-3.906,3.906-3.906h3.689c1.085,0,1.953,0.434,2.604,1.085C504.232,691.359,504.667,692.444,504.667,693.313
	 M504.449,669.875h-10.851c-10.634,0-19.314,8.68-19.314,19.314v79.861c0,10.633,8.681,19.313,19.314,19.313h10.851
	c10.634,0,19.314-8.68,19.314-19.313v-79.861C523.763,678.555,515.083,669.875,504.449,669.875"/>
<path fill="#FFFFFF" d="M624.024,734.545l-1.953-2.604l-0.217-0.218l-23.221-21.267c-0.217-0.218-0.435-0.652-0.651-1.086
	c-0.217-0.65-0.217-1.302-0.217-1.953v-14.757c0-2.17,1.736-3.906,3.906-3.906h3.472c2.171,0,3.906,1.736,3.906,3.906v0.651
	c0,0.217,0,0.434,0,0.434v5.426v8.68c0,0.869,0.651,1.52,1.52,1.52h16.059c0.868,0,1.52-0.65,1.52-1.52v-18.662
	c0-10.635-8.681-19.314-19.314-19.314h-10.634c-10.634,0-19.313,8.68-19.313,19.314v21.05c0,0.868-0.218,6.944,5.208,13.89
	c1.085,1.301,1.302,1.735,1.519,1.953l0.218,0.217c0,0,0,0,0.217,0.217l0,0l22.353,19.965c0.217,0.217,0.434,0.651,0.65,1.303
	c0.218,0.434,0.218,1.302,0.218,1.519v8.247l0,0v6.51c0,2.17-1.736,3.906-3.906,3.906h-3.473c-2.17,0-3.906-1.736-3.906-3.906
	v-18.88c0-0.868-0.651-1.519-1.519-1.519h-16.06c-0.868,0-1.519,0.65-1.519,1.519v22.353c0,10.633,8.68,19.314,19.313,19.314h10.634
	c10.634,0,19.314-8.682,19.314-19.314v-19.314c0-0.65,0.217-4.557-1.085-8.463C625.76,736.498,624.241,734.762,624.024,734.545"/>
<path fill="#FFFFFF" d="M628.147,525.994c-89.627,0-195.313,8.247-195.313,8.247v155.815v155.816
	c0,12.805,4.34,27.561,11.285,41.016c6.944,13.238,16.71,25.174,27.344,32.553l78.342,53.385l78.342,53.168l97.656-66.623
	l58.81-40.146c10.635-7.379,20.4-19.098,27.344-32.553c6.945-13.238,11.285-27.994,11.285-41.016v-155.6V534.241
	C823.459,534.241,717.774,525.994,628.147,525.994 M628.147,544.224c67.058,0,143.88,4.774,177.083,7.161v138.889V846.09
	c0,9.549-3.473,21.268-9.332,32.553s-13.672,20.615-21.484,26.041l-58.81,40.148l-87.457,59.244l-67.926-46.441l-78.342-53.385
	c-7.813-5.426-15.625-14.758-21.484-26.041c-5.859-11.285-9.331-23.004-9.331-32.553v-155.6V551.168
	C484.267,548.998,561.089,544.224,628.147,544.224"/>
</svg>
