<?xml version="1.0" encoding="utf-8"?>
<!-- Generator: Adobe Illustrator 17.1.0, SVG Export Plug-In . SVG Version: 6.00 Build 0)  -->
<!DOCTYPE svg PUBLIC "-//W3C//DTD SVG 1.1//EN" "http://www.w3.org/Graphics/SVG/1.1/DTD/svg11.dtd">
<svg version="1.1" id="Layer_1" xmlns="http://www.w3.org/2000/svg" xmlns:xlink="http://www.w3.org/1999/xlink" x="0px" y="0px"
	 viewBox="0 0 100 100" enable-background="new 0 0 100 100" xml:space="preserve">
<path fill="#AA332A" d="M-40.3-98C-40.3-98-40.2-98-40.3-98L-40.3-98L-40.3-98L-40.3-98z"/>
<path fill="#231F20" d="M88.3,84.4c-2.1-0.3-4.4-0.6-6.8-1c-6.1-0.9-12.2-1.7-18.3-2.7c-2.7-0.4-5.1,0.3-7.6,0.7
	c-9.5,1.7-19,3.5-28.4,5.2c-4.1,0.7-8.2,1.6-12.3,2.3c-2.5,0.4-3.9-0.7-4.4-3.1C9.6,81.2,8.8,76.6,8,72c-1.8-9.7-3.6-19.3-5.3-29
	C1.8,38.4,1,33.9,0.2,29.3c-0.4-2,0.9-3.6,2.9-4c3.7-0.7,7.5-1.4,11.2-2.1c0.7-0.1,1.4-0.4,2.1-0.4c0.9,0,1.2-0.5,1.3-1.3
	c0.2-1.8,0.5-3.5,0.7-5.3c0.3-2.1,2-3.4,4.1-3.1c8.5,1.2,16.9,2.5,25.4,3.6c1.7,0.2,3.5-0.4,5.2-0.7c9.6-1.8,19.1-3.5,28.7-5.3
	c2.8-0.5,4.3,0.6,4.7,3.4c0.4,2.6,0.9,5.1,1.4,7.7c0.1,0.6,0.4,0.9,1.1,0.9c2.7,0.4,5.5,0.7,8.2,1.1c2.1,0.3,3.4,2,3,4.1
	c-1.6,11-3.2,22-4.7,33.1c-0.2,1.6,0.4,3.4,0.7,5.1c0.2,1.4,0.5,2.7,0.8,4.1c0.3,1.6-0.7,3.3-2.3,3.7c-0.9,0.3-1.1,0.8-1.2,1.6
	c-0.2,1.9-0.5,3.8-0.9,5.7C91.9,83.5,90.7,84.5,88.3,84.4z M17.8,67.4c22.9,3.3,45.5,6.6,68.3,9.8c2.3-15.7,4.5-31.2,6.7-46.9
	C70,27,47.3,23.7,24.5,20.4C22.3,36.2,20.1,51.7,17.8,67.4z M7.3,31.5c1.6,8.7,3.2,17.3,4.8,25.9c0.1,0,0.2,0,0.3,0
	c1.3-9.1,2.6-18.2,4-27.5C13.2,30.5,10.3,31,7.3,31.5z M16.6,81.7c7.6-1.4,15-2.8,22.4-4.1c0-0.1,0-0.2,0-0.3
	c-7.9-1.1-15.8-2.3-23.9-3.4C15.6,76.6,16.1,79.1,16.6,81.7z M80.1,18.1c-3.3,0.6-6.6,1.2-9.8,1.8c0,0.1,0,0.2,0,0.3
	c3.4,0.5,6.8,1,10.4,1.5C80.6,20.5,80.4,19.4,80.1,18.1z M63.7,40.4c2.7,5.3,5.3,10.4,7.8,15.4c2.1-2,4.3-3.9,6.5-5.9
	c1.3,7.2,2.7,14.5,4.1,22.1c-19.6-2.8-39.1-5.7-58.7-8.5c1.3-3.2,3.5-5.6,6.6-6.8c3.5-1.4,7.1-1.5,10.8-0.9c2.4,0.4,4.8,1.1,7.1,1.8
	c0.7,0.2,1-0.1,1.4-0.5C53.6,52,58,47,62.4,42C62.7,41.5,63.2,41,63.7,40.4z M40,44.8c-3.7,0-6.6-2.9-6.6-6.5c0-3.8,2.8-6.6,6.7-6.6
	c3.6,0,6.5,2.9,6.5,6.6C46.5,41.9,43.6,44.8,40,44.8z"/>
</svg>
