<?xml version="1.0" encoding="utf-8"?>
<!-- Generator: Adobe Illustrator 17.1.0, SVG Export Plug-In . SVG Version: 6.00 Build 0)  -->
<!DOCTYPE svg PUBLIC "-//W3C//DTD SVG 1.1//EN" "http://www.w3.org/Graphics/SVG/1.1/DTD/svg11.dtd">
<svg version="1.1" id="Layer_1" xmlns="http://www.w3.org/2000/svg" xmlns:xlink="http://www.w3.org/1999/xlink" x="0px" y="0px"
	 viewBox="0 0 100 100" enable-background="new 0 0 100 100" xml:space="preserve">
<path fill="#231F20" d="M50,0C22.4,0,0,22.4,0,50s22.4,50,50,50s50-22.4,50-50S77.6,0,50,0z M39.2,66.7h-8L18.7,38h-0.1v28.7h-6.3
	V28.3h8L32.9,57H33V28.3h6.3V66.7z M70.3,66.7h-6.5V49.8H50.7v16.8h-6.5V28.3h6.5v15.5h13.1V28.3h6.5V66.7z M79.1,78.4
	c-2,0-4.2-0.3-5.9-0.7l0.3-3.8c1.5,0.6,3.2,1,5,1c1.9,0,4.7-0.9,4.7-3.2c0-2.6-2.1-3.5-4.9-3.5H76v-3.5h2.1c3,0,5-1,5-2.9
	c0-2.2-1.8-2.9-3.8-2.9c-1.8,0-3.5,0.4-5,1.2l-0.3-3.6c1.8-0.7,3.9-1.1,6.3-1.1c2.8,0,7.4,1,7.4,5.7c0,3-1.9,4.5-4.2,5.4v0.1
	c2.9,0.4,4.3,2.6,4.3,5.3C87.6,77,82.8,78.4,79.1,78.4z"/>
</svg>
