<?xml version="1.0" encoding="utf-8"?>
<!-- Generator: Adobe Illustrator 17.1.0, SVG Export Plug-In . SVG Version: 6.00 Build 0)  -->
<!DOCTYPE svg PUBLIC "-//W3C//DTD SVG 1.1//EN" "http://www.w3.org/Graphics/SVG/1.1/DTD/svg11.dtd">
<svg version="1.1" id="Layer_1" xmlns="http://www.w3.org/2000/svg" xmlns:xlink="http://www.w3.org/1999/xlink" x="0px" y="0px"
	 viewBox="0 0 100 100" enable-background="new 0 0 100 100" xml:space="preserve">
<path fill="#414042" d="M99.8,71.5c-3.4,0-6.7,0-10-0.5c1.1-0.1,1.9-1.4,2.1-2.5c0.2-1.2,0.2-2.2,0.9-3.4c0.7-1.4,2.2-2,3.5-2.9
	c1.2-0.7,2.2-2.1,2.1-3.6c-2.6,0.5-5.2,1.1-7.9,1.5c-0.5,0.1-0.7,0.1-1.1,0.5c-0.5,0.2-0.5,0.7-0.6,1.2c-0.2,1.7-0.7,3.2-1.5,4.6
	c-0.6,1.1-1.5,2-2.6,2.6V35.7v-1.5H64.2c0.1-0.2,0.2-0.6,0.6-0.9c0.5-0.5,1.4-0.5,2.1-0.5c1.5,0,3.2-0.2,3.5-1.7
	c0-0.5,0-0.7,0.1-1.1c0.2-0.2,0.6-0.5,0.9-0.6c1.1-0.6,2.2-0.9,3.5-1.2c1.1-0.2,2.1-0.5,2.9-1.1c0.7-0.7,1.2-2,0.5-2.7
	c-3.2,0.9-6.5,2-9.5,3.1c0.9-0.6,1.2-1.9,1.2-3.1C70,23,69.6,21.8,70,20.8c0.2-1.5,1.4-2.6,2.1-3.5C73,16,73.6,14.4,73,13
	c-2.2,1.2-4.6,2.6-6.9,3.9c-0.5,0.2-0.7,0.5-0.9,0.7c-0.1,0.2-0.1,0.7-0.1,1.2c0.1,1.5,0.1,3.2-0.1,4.7c-0.2,1.7-1.2,3.2-2.6,4
	c-0.1,0.1-0.2,0.1-0.5,0.1s-0.5-0.5-0.5-0.7c-0.6-3.4-1.4-6.7-2-10.1c-0.6,1.7-1.4,3.2-2.1,4.9c-2-2-1.9-6.1-4.6-7
	c-0.6,3.6,0.7,7.4,2.2,10.6c1.5,2.9,3.2,5.9,4.5,8.9h-20c1.2-2.9,1.4-6.2,0-9c-2-3.6-6.2-5.5-10.4-6.2c-3.5-0.6-6.2,0.2-8.7-2.2
	c-1.1-1.1-3.1-6-4.7-6c-1.6,0-3.5,1.1-4,1.2c-3.6,1.9-3.9,6.9-5.4,10.9c-0.5,1.2-0.9,2.6-1.1,4c0,0.6,0,1.4,0,2.1
	c-0.6,0.7-1.4,1.5-2.2,2.1c-0.6,0.5-1.4,0.9-1.9,1.4c-1.1,1.2-1.2,3.4-0.1,4.6c0.1,0.1,0.2,0.2,0.5,0.5c0.7,0.5,1.7,0,2.5-0.1
	c0.7-0.2,1.7-0.2,2.5-0.1c0.6,1.9,1.4,3.6,2.2,5.4c1.5,2.5,3.5,4.9,6,6.1v39v1.5H85v-1.5V75.5c0.5,0,1.1,0.1,1.5,0.5
	c1.4,0.5,3.2,0.6,3.9-0.6c0.1-0.2,0.1-0.6,0.5-0.9c0.2-0.1,0.7-0.2,1.1-0.2c1.2-0.1,2.5-0.1,3.6,0c1.1,0.1,2.1,0.2,3.1,0
	C99.6,73.6,100.3,72.3,99.8,71.5z M24.1,48h1.7v7.5h-8.1v-6C19.9,49.7,22.1,49.1,24.1,48z M77.4,64.7c0.1,0.5,0.1,0.9,0.2,1.4h-3.9
	v-7.5H77C76.9,60.6,77,62.7,77.4,64.7z M70.7,66.1h-8.1v-7.5h8.1V66.1z M59.5,66.1h-8.2v-7.5h8.2V66.1z M44.1,64.1
	c-0.2,0.5-0.2,1.2-0.2,2H40v-7.5h8.1v7.5h-2.9C44.9,65.4,44.6,64.7,44.1,64.1z M44.8,71.6c-0.7-0.7-1.5-1.7-2.2-2.5h2.1
	C44.8,70.1,44.9,70.8,44.8,71.6z M42.1,76.8c-0.2-0.5-0.7-0.7-1.1-1.2c-0.4-0.6-0.6-1-1-1.9v-4.6h1.7c0.9,2.6,1.9,5.2,2.7,7.6h-2.4
	V76.8z M51.2,55.5V48h8.2v7.5H51.2z M48.1,55.5H40V48h8.1V55.5z M37,55.5h-8.1V48H37V55.5z M29,45c2.7-2,5.6-4,8-6.6V45H29z
	 M25.8,58.6v7.5h-8.1v-7.5H25.8z M28.9,58.6H37v7.5h-8.1V58.6z M37,69.2v0.5c-0.6-0.1-1.2-0.2-1.7-0.5H37z M48.1,76.8
	C48,76,47.9,75,47.6,74.1c-0.2-1.5-0.6-3.2-1.2-4.9h1.7V76.8L48.1,76.8z M51.2,69.2h8.2v7.6h-8.2V69.2z M62.6,69.2h8.1v7.6h-8.1
	V69.2z M73.7,69.2H78c0.5,2.1,0.7,4.2,0.7,6.5c0,0.5,0,0.7,0.1,1.2h-5.1V69.2z M80.5,62.1c-0.5-1.1-0.6-2.2-0.6-3.5h2v2
	C81.5,61.1,81,61.6,80.5,62.1z M81.9,55.5h-2.5c-0.1-0.6-0.6-1.1-1.1-1.5c-0.2,0.5-0.5,1.1-0.6,1.5h-3.9V48h8.1V55.5z M70.7,55.5
	h-8.1V48h8.1V55.5z M62.6,45v-7.5h8.1V45H62.6z M59.5,45h-8.2v-7.5h8.2V45z M48.1,45H40v-7.5h8.1V45z M17.6,69.2h8.1v7.6h-8.1V69.2z
	 M28.9,69.2h3.2c0.5,1.1,1.2,1.9,2.1,2.6c0.9,0.6,2,1.4,2.7,2.2v2.7h-8.1V69.2z M34.3,79.8c0,0.9,0.7,1.9,1.5,2.1
	c0.5,0.1,0.7,0.1,1.2,0.1v4.1h-8.1V80h5.4V79.8z M40,82.2c0.1,0,0.1,0,0.2,0c0.2,0,0.5,0.1,0.7,0.2c0.2,0.2,0.2,0.6,0.6,0.9
	c0.7,1.2,2,0.9,2.7,0.6c0.5-0.2,0.9-0.5,1.4-0.1c0.2,0.1,0.6,0.5,0.7,0.7c0.5,0.5,1.1,0.9,1.5,1.2v0.4h-8V82.2z M51.2,79.8h8.2v6.2
	h-8.2V79.8z M62.6,79.8h8.1v6.2h-8.1V79.8z M73.7,79.8h8.1v6.2h-8.1V79.8z M81.9,45h-8.1v-7.5h8.1V45z M11.4,15.8
	c1.9-3.4,5.6-2.6,6.2,1.4c0.1,0.5,0.2,1.1,0.1,1.5c-0.2,1.1-1.2,2-2.2,2.5C11.2,23,10.2,17.8,11.4,15.8z M17.6,79.8h8.1v6.2h-8.1
	C17.6,86.2,17.6,79.8,17.6,79.8z"/>
</svg>
