<?xml version="1.0" encoding="utf-8"?>
<!-- Generator: Adobe Illustrator 17.1.0, SVG Export Plug-In . SVG Version: 6.00 Build 0)  -->
<!DOCTYPE svg PUBLIC "-//W3C//DTD SVG 1.1//EN" "http://www.w3.org/Graphics/SVG/1.1/DTD/svg11.dtd">
<svg version="1.1" id="Layer_1" xmlns="http://www.w3.org/2000/svg" xmlns:xlink="http://www.w3.org/1999/xlink" x="0px" y="0px"
	 viewBox="0 0 100 100" enable-background="new 0 0 100 100" xml:space="preserve">
<path fill="#414042" d="M51.1,41.6V18.1c4.5-0.5,8-4.4,8-9C59.1,4.1,55,0,50,0s-9.1,4.1-9.1,9.1c0,4.6,3.4,8.4,7.9,9v23.5H27.1v1
	v33.7v1h21.7V98H28.1v2h43.7v-2H51.1V77.3h21.8v-1V42.6v-1H51.1z M58.3,69.2v-4.9h5.3v4.9H58.3z M63.6,71.2v4.1h-5.3v-4.1H63.6z
	 M36.4,69.2v-4.9h5.3v4.9H36.4z M41.7,71.2v4.1h-5.3v-4.1H41.7z M63.6,50.5v4.9h-5.3v-4.9H63.6z M58.3,48.5v-4.9h5.3v4.9H58.3z
	 M43.7,57.4h5.1v4.9h-5.1V57.4z M41.7,62.3h-5.3v-4.9h5.3V62.3z M51.1,57.4h5.2v4.9h-5.2V57.4z M58.3,57.4h5.3v4.9h-5.3V57.4z
	 M65.6,57.4h5.2v4.9h-5.2V57.4z M65.6,55.4v-4.9h5.2v4.9H65.6z M56.3,55.4h-5.2v-4.9h5.2V55.4z M48.8,55.4h-5.1v-4.9h5.1V55.4z
	 M41.7,55.4h-5.3v-4.9h5.3V55.4z M36.4,48.5v-4.9h5.3v4.9H36.4z M34.4,48.5h-5.3v-4.9h5.3V48.5z M29.1,50.5h5.3v4.9h-5.3V50.5z
	 M29.1,57.4h5.3v4.9h-5.3V57.4z M29.1,64.3h5.3v4.9h-5.3V64.3z M43.7,64.3h5.1v4.9h-5.1V64.3z M51.1,64.3h5.2v4.9h-5.2V64.3z
	 M65.6,64.3h5.2v4.9h-5.2V64.3z M70.8,48.5h-5.2v-4.9h5.2V48.5z M56.3,43.6v4.9h-5.2v-4.9H56.3z M48.8,48.5h-5.1v-4.9h5.1V48.5z
	 M29.1,71.2h5.3v4.1h-5.3V71.2z M43.7,75.3v-4.1h5.1v4.1H43.7z M51.1,71.2h5.2v4.1h-5.2V71.2z M65.6,75.3v-4.1h5.2v4.1H65.6z"/>
</svg>
