<?xml version="1.0" encoding="utf-8"?>
<!-- Generator: Adobe Illustrator 17.1.0, SVG Export Plug-In . SVG Version: 6.00 Build 0)  -->
<!DOCTYPE svg PUBLIC "-//W3C//DTD SVG 1.1//EN" "http://www.w3.org/Graphics/SVG/1.1/DTD/svg11.dtd">
<svg version="1.1" id="Layer_1" xmlns="http://www.w3.org/2000/svg" xmlns:xlink="http://www.w3.org/1999/xlink" x="0px" y="0px"
	 viewBox="0 0 100 100" enable-background="new 0 0 100 100" xml:space="preserve">
<g>
	<path fill="#AA332A" d="M97.5,2.5l2.5,3.6c-10.3,7.7-21.7,19.7-34.3,35.8C53.1,58,43.5,73,36.8,87l-5.3,3.6c-4.4,3.1-7.4,5.4-9,6.8
		c-0.6-2.3-2-6-4.1-11.1l-2-4.7c-2.9-6.7-5.6-11.7-8-14.9c-2.5-3.2-5.3-5.4-8.3-6.4c5.2-5.5,9.9-8.3,14.3-8.3c3.7,0,7.8,5,12.3,15.1
		l2.2,5.1c8.1-13.7,18.6-27,31.3-39.9C72.9,19.4,85.3,9.5,97.5,2.5L97.5,2.5z"/>
</g>
</svg>
