<?xml version="1.0" encoding="utf-8"?>
<!-- Generator: Adobe Illustrator 17.1.0, SVG Export Plug-In . SVG Version: 6.00 Build 0)  -->
<!DOCTYPE svg PUBLIC "-//W3C//DTD SVG 1.1//EN" "http://www.w3.org/Graphics/SVG/1.1/DTD/svg11.dtd">
<svg version="1.1" id="Layer_1" xmlns="http://www.w3.org/2000/svg" xmlns:xlink="http://www.w3.org/1999/xlink" x="0px" y="0px"
	 viewBox="0 0 100 100" enable-background="new 0 0 100 100" xml:space="preserve">
<g>
	<path fill="#231F20" d="M64.9,33.7c-6.5,0-9.2,6.9-9.2,13.7c0,6.9,2.5,13.9,9.2,13.9s9.2-7,9.2-13.9C74.1,40.6,71.4,33.7,64.9,33.7
		z"/>
	<path fill="#231F20" d="M29.3,34.3h-3.6v26.3h3.6c5.5,0,10.8-4.8,10.8-13.1S34.8,34.3,29.3,34.3z"/>
	<path fill="#231F20" d="M50,0C22.4,0,0,22.4,0,50s22.4,50,50,50s50-22.4,50-50S77.6,0,50,0z M28,66.7h-8.9V28.3H28
		c10,0,18.8,4,18.8,19.2C46.9,62.7,38,66.7,28,66.7z M64.9,67.3c-10.5,0-16-8.2-16-20c0-11.8,5.6-19.7,16-19.7
		c10.2,0,16,8.1,16,19.7C80.9,59,75.2,67.3,64.9,67.3z"/>
</g>
</svg>
