<?xml version="1.0" encoding="utf-8"?>
<!-- Generator: Adobe Illustrator 17.1.0, SVG Export Plug-In . SVG Version: 6.00 Build 0)  -->
<!DOCTYPE svg PUBLIC "-//W3C//DTD SVG 1.1//EN" "http://www.w3.org/Graphics/SVG/1.1/DTD/svg11.dtd">
<svg version="1.1" id="Layer_1" xmlns="http://www.w3.org/2000/svg" xmlns:xlink="http://www.w3.org/1999/xlink" x="0px" y="0px"
	 viewBox="0 0 100 100" enable-background="new 0 0 100 100" xml:space="preserve">
<path fill="#231F20" d="M96.4,31.4C86.1,5.8,57-6.7,31.4,3.6S-6.7,43,3.6,68.6s39.4,38.1,65,27.8S106.7,57,96.4,31.4z M90.1,34
	c2,1.9,2.2,4.9,0.4,7.1C79.3,53.4,62.1,57.2,61.4,57.4c-2.4,0.5-4.7-0.8-5.6-3c-0.1-0.3-0.2-0.6-0.2-0.8c-0.5-2.7,1.1-5.3,3.8-5.9
	c0.2-0.1,14.9-3.4,23.8-13.3C84.9,32.3,88.1,32.1,90.1,34z M32.4,18c-0.4-0.5-0.7-0.9-0.9-1.4c-0.9-2.1-0.2-4.6,1.5-6.1
	c2.3-1.9,5.6-1.5,7.5,0.8c0.2,0.1,7.1,8.3,22.5,16.5c2.6,1.4,3.6,4.6,2.1,7.2c-1.4,2.6-4.6,3.6-7.2,2.1C40.6,27.8,32.7,18.4,32.4,18
	z M16.7,66c-0.4-1.2-0.9-2.3-1.4-3.5c-6.1-15.1-2.5-29.4-2.3-30c0.7-2.9,3.7-4.6,6.5-3.8c2.9,0.7,4.6,3.7,3.8,6.5
	c0,0.2-3.2,13.5,3.1,26c1.3,2.6,0.3,5.8-2.4,7.2C21.3,69.6,18.1,68.7,16.7,66z M43.2,84.9c-2-0.3-3.5-1.6-4.1-3.3
	c-0.3-0.8-0.5-1.7-0.4-2.8c0-0.2,1.4-10.9-2.7-27.8c-0.7-2.8,1.1-5.7,3.9-6.4c2.8-0.7,5.7,1.1,6.4,3.9c4.7,19.2,2.9,31.4,2.9,31.9
	C48.8,83.3,46.1,85.3,43.2,84.9z M59.6,86.2c-0.1-0.1-0.2-0.1-0.2-0.2c-1-2.6,0.1-5.6,2.7-6.8c0.2-0.1,12.4-6.2,18-19.1
	c1.2-2.7,4.3-4,7-2.8c2.7,1.2,4,4.3,2.8,7c-7.3,16.7-22.5,24.1-23.1,24.5C64,90,60.8,88.9,59.6,86.2z"/>
</svg>
