<?xml version="1.0" encoding="utf-8"?>
<!-- Generator: Adobe Illustrator 17.1.0, SVG Export Plug-In . SVG Version: 6.00 Build 0)  -->
<!DOCTYPE svg PUBLIC "-//W3C//DTD SVG 1.1//EN" "http://www.w3.org/Graphics/SVG/1.1/DTD/svg11.dtd">
<svg version="1.1" id="Layer_1" xmlns="http://www.w3.org/2000/svg" xmlns:xlink="http://www.w3.org/1999/xlink" x="0px" y="0px"
	 viewBox="0 0 500 500" enable-background="new 0 0 500 500" xml:space="preserve">
<g>
	<path fill="#231F20" d="M374.2,206.8l-2.1-2.1c0,0-58.6-64-85.3-114.6C267.6,61.3,250.5,0,250.5,0s-22.4,66.6-34.6,89
		c-20.8,42.1-92.8,121-92.8,121l-0.5,0.5C94.3,241.5,77.3,282,77.3,327.3C77.3,422.7,154.6,500,250,500s172.7-77.3,172.7-172.7
		C422.7,280.4,404.6,238.3,374.2,206.8z M243.1,473.3c-80,0-145-64.5-145-143.4c0-37.3,14.4-71.4,37.8-97v-0.5
		c0,0,60.8-65.6,77.8-100.7c10.7-18.7,29.3-73.6,29.3-73.6s14.9,51.2,30.4,75.2c22.4,42.1,72,94.9,72,94.9l1.6,1.6
		c25.1,25.6,41,60.8,41,99.7C388.1,409.4,323.6,473.3,243.1,473.3z"/>
	<path fill="#231F20" d="M276.1,286.8c0,0-30.4-32.5-43.7-58.1c-9.6-14.9-18.7-45.8-18.7-45.8s-11.7,33-18.1,44.8
		c-10.7,21.3-48,61.8-48,61.8v0.5c-14.4,15.5-23.5,36.8-23.5,59.2c0,48.5,40,88,89,88s89-39.4,89-88c0-24-9.6-45.3-25.1-61.3
		L276.1,286.8z"/>
</g>
</svg>
