<?xml version="1.0" encoding="utf-8"?>
<!-- Generator: Adobe Illustrator 17.1.0, SVG Export Plug-In . SVG Version: 6.00 Build 0)  -->
<!DOCTYPE svg PUBLIC "-//W3C//DTD SVG 1.1//EN" "http://www.w3.org/Graphics/SVG/1.1/DTD/svg11.dtd">
<svg version="1.1" id="Layer_1" xmlns="http://www.w3.org/2000/svg" xmlns:xlink="http://www.w3.org/1999/xlink" x="0px" y="0px"
	 viewBox="0 0 56.7 56.7" enable-background="new 0 0 56.7 56.7" xml:space="preserve">
<path fill="#231F20" d="M4.1,21.2L0,23.6L27.3,37l4.3-4L4.1,21.2z M6.1,20l27.5,11.5l3.8-3.4L10.8,17.4L6.1,20z M13.1,16l26.2,10.2
	l4.1-3.5l-25.6-9.5L13.1,16z M20.1,12.1l25,9.2l3.7-3.3l-25.3-7.8L20.1,12.1z M29.2,7.3l-3.6,1.7l25,7.5l3.2-2.7L29.2,7.3z
	 M54.8,12.3l1.9-1.4L33.8,5.4l-2.7,0.9L54.8,12.3z M3.1,27.7c0,0,0.2,11,0.4,11.7c0.2,0.6,0.6,1.1,2.2,1C7.1,40.3,7.5,40,8,39.1
	c0.3-0.9-0.1-9.2-0.1-9.2L3.1,27.7z M46.9,22.3c0,0,0.3,6.7,0.4,7c0.1,0.4,0.4,1.4,1.5,1.3c1.1,0,2-0.6,2.2-1.3
	c0.2-0.6-0.3-10.2-0.3-10.2L46.9,22.3z M27.5,39.6l-3.1-1.3c0,0,0.1,9.7,0.3,11c0,0.6,0.8,2.2,2.8,2c1.9-0.1,2.5-1.3,2.5-1.9
	c0.1-2.7-0.3-11.7-0.3-11.6L27.5,39.6z"/>
</svg>
