<?xml version="1.0" encoding="utf-8"?>
<!-- Generator: Adobe Illustrator 17.1.0, SVG Export Plug-In . SVG Version: 6.00 Build 0)  -->
<!DOCTYPE svg PUBLIC "-//W3C//DTD SVG 1.1//EN" "http://www.w3.org/Graphics/SVG/1.1/DTD/svg11.dtd">
<svg version="1.1" id="Layer_1" xmlns="http://www.w3.org/2000/svg" xmlns:xlink="http://www.w3.org/1999/xlink" x="0px" y="0px"
	 viewBox="0 0 100 100" enable-background="new 0 0 100 100" xml:space="preserve">
<g>
	<path fill="#231F20" d="M56.1,33.7c-6.5,0-9.2,6.9-9.2,13.7c0,6.9,2.5,13.9,9.2,13.9s9.2-7,9.2-13.9C65.2,40.6,62.6,33.7,56.1,33.7
		z"/>
	<path fill="#231F20" d="M50,0C22.4,0,0,22.4,0,50s22.4,50,50,50s50-22.4,50-50S77.6,0,50,0z M36.8,66.7h-8L16.3,38h-0.1v28.7H9.9
		V28.3h8L30.4,57h0.1V28.3h6.3V66.7z M56.1,67.3c-10.5,0-16-8.2-16-20s5.6-19.7,16-19.7c10.2,0,16,8.1,16,19.7S66.4,67.3,56.1,67.3z
		 M79.2,78.4c-2,0-4.2-0.3-5.9-0.7l0.3-3.8c1.5,0.6,3.2,1,5,1c1.9,0,4.7-0.9,4.7-3.2c0-2.6-2.1-3.5-4.9-3.5h-2.2v-3.5h2.1
		c3,0,5-1,5-2.9c0-2.2-1.8-2.9-3.8-2.9c-1.8,0-3.5,0.4-5,1.2l-0.3-3.6c1.8-0.7,3.9-1.1,6.3-1.1c2.8,0,7.4,1,7.4,5.7
		c0,3-1.9,4.5-4.2,5.4v0.1c2.9,0.4,4.3,2.6,4.3,5.3C87.8,77,82.9,78.4,79.2,78.4z M75.6,39v-6h14.5v6H75.6z"/>
</g>
</svg>
