<?xml version="1.0" encoding="utf-8"?>
<!-- Generator: Adobe Illustrator 17.1.0, SVG Export Plug-In . SVG Version: 6.00 Build 0)  -->
<!DOCTYPE svg PUBLIC "-//W3C//DTD SVG 1.1//EN" "http://www.w3.org/Graphics/SVG/1.1/DTD/svg11.dtd">
<svg version="1.1" id="Layer_1" xmlns="http://www.w3.org/2000/svg" xmlns:xlink="http://www.w3.org/1999/xlink" x="0px" y="0px"
	 viewBox="0 0 100 100" enable-background="new 0 0 100 100" xml:space="preserve">
<g>
	<path fill="#231F20" d="M33.6,57.9c-4.1,0-5.7,3.7-5.7,8c0,4.1,1.6,8,5.7,8c4.1,0,5.7-3.9,5.7-8C39.3,61.6,37.7,57.9,33.6,57.9z"/>
	<path fill="#231F20" d="M75.1,41.3l-0.4-0.4c0,0-12-12.8-17.2-22.8c-3.8-5.9-7.4-18-7.4-18s-4.6,13-7.1,17.6
		C38.9,26,24.2,41.9,24.2,41.9v0.2C18.6,48.2,15,56.6,15,65.4C15,84.5,30.7,100,50,100c19.3,0,35-15.5,35-34.6
		C85,56,81.2,47.6,75.1,41.3z M33.6,79C25.4,79,21,74,21,66c0-8.1,4.3-13,12.6-13c8.3,0,12.6,4.9,12.6,13C46.2,74,41.8,79,33.6,79z
		 M57,78.5h-6.7V53.4H57V78.5z M62,78.5V53.4h6.7v20.2h10.4v5H62z"/>
</g>
</svg>
