<?xml version="1.0" encoding="utf-8"?>
<!-- Generator: Adobe Illustrator 17.1.0, SVG Export Plug-In . SVG Version: 6.00 Build 0)  -->
<!DOCTYPE svg PUBLIC "-//W3C//DTD SVG 1.1//EN" "http://www.w3.org/Graphics/SVG/1.1/DTD/svg11.dtd">
<svg version="1.1" id="Layer_1" xmlns="http://www.w3.org/2000/svg" xmlns:xlink="http://www.w3.org/1999/xlink" x="0px" y="0px"
	 viewBox="0 0 100 100" enable-background="new 0 0 100 100" xml:space="preserve">
<g>
	<path fill="#231F20" d="M24.4,37.2c-6.5,0-9.2,6.9-9.2,13.7c0,6.9,2.5,13.9,9.2,13.9c6.7,0,9.2-7,9.2-13.9
		C33.6,44.1,30.9,37.2,24.4,37.2z"/>
	<path fill="#231F20" d="M52.2,37.9H50v10.3h2.2c3.2,0,6.9-0.5,6.9-5.3C59.1,38.2,55.4,37.9,52.2,37.9z"/>
	<path fill="#231F20" d="M50,0C22.4,0,0,22.4,0,50s22.4,50,50,50s50-22.4,50-50S77.6,0,50,0z M24.4,70.9c-10.5,0-16-8.2-16-20
		s5.6-19.7,16-19.7c10.2,0,16,8.1,16,19.7S34.7,70.9,24.4,70.9z M60.6,70.2l-3.9-12c-0.9-2.9-1.8-4-4.5-4H50v15.9h-6.5V31.8h7.1
		c7,0,15.4-0.3,15.4,10.4c0,4.5-2.6,8.2-6.7,8.9v0.1c1.8,0.2,2.8,2.3,3.5,4l5.2,15H60.6z M79,55.6h-2.8v14.6h-6.5V31.8H78
		c7.1,0,13.6,2.4,13.6,11.6C91.6,52.4,86,55.6,79,55.6z"/>
	<path fill="#231F20" d="M78.5,37.9h-2.3v11.7h2.3c3.3,0,6.2-1.3,6.2-5.7S81.9,37.9,78.5,37.9z"/>
</g>
</svg>
