<?xml version="1.0" encoding="utf-8"?>
<!-- Generator: Adobe Illustrator 17.1.0, SVG Export Plug-In . SVG Version: 6.00 Build 0)  -->
<!DOCTYPE svg PUBLIC "-//W3C//DTD SVG 1.1//EN" "http://www.w3.org/Graphics/SVG/1.1/DTD/svg11.dtd">
<svg version="1.1" id="Layer_1" xmlns="http://www.w3.org/2000/svg" xmlns:xlink="http://www.w3.org/1999/xlink" x="0px" y="0px"
	 viewBox="0 0 100 100" enable-background="new 0 0 100 100" xml:space="preserve">
<path fill-rule="evenodd" clip-rule="evenodd" fill="#E96057" d="M40.4,90.7c-0.5-0.8-3.1-2.6-3.4-3.3s-0.9-2.4-0.9-2.4
	c-1-1-2.2-4.6-2.7-7.5c-0.4-2-0.2-4.8-0.2-7.1c-0.1-8-7.1-9.2-9.1-16.3c-0.3-1.1-0.5-2.3-0.6-3.5c-0.3-5.2,0.3-2.1-1.1-6.8
	c-0.8-2.5-1.1-5.2-0.9-7.8c0.3-3.1,1.4-6.1,3.5-8.6c0.5-0.5,0.9-1,1.3-1.5c2.9-3.3,2-1.9,1.6-5.9c-0.1-1.3,0.5-2.4,1.4-3.3
	c1.2-1.3,1.6-1.2,1.6-3c0.1-2.1,0.8-3.6,3.3-4.9c1-0.5,1.9-1,2.4-3.4c0-0.1,0-0.1,0.1-0.4c0.1-0.7,0.3-1.4,0.6-2c1.4-3,3.9-2.1,7-1
	c2.2,0.8,4.8,1.7,7.4,1.1c0.6-0.1,1.1-0.3,1.7-0.5c0.5-0.2,1.1-0.5,1.6-0.7c0.1,0,0.1-0.1,0.4-0.2c2.9-1.5,4.6-2.9,6.7,0.2
	c0.4,0.6,0.9,1.3,1.6,2.1c1.6,1.8,2.3,1.9,3,2c1.6,0.2,2.2,1,2.4,2.6c0.3,2.4,1.3,3.4,3.4,4.5c2.2,1.2,3.1,2.5,3.1,4.7
	c0,2.3,0.5,4.5,1.4,6.7c1.4,3.6,2.3,6-0.4,12.8c-0.7,1.8-0.9,3.1-0.7,4.1c0.2,0.9,0.6,1.6,1.1,2.2c3,3.6,1.6,6.1,0.1,8.9
	c-0.7,1.3-1.4,2.6-1.7,4.1c-0.3,1.7-0.2,3.4-0.2,4.8c0,1.4,0.1,3-0.8,4.2c-0.9,1.2-2.3,3.3-3.3,5.2c-3,5.9-1.8,9.7-9.1,13.8
	c-1.1,0.6-2.1,1.2-2.3,2.7c-0.2,1.7,0.8,3.8-1.7,4.8c-2.8,1.1-1.2,1-3,4.8c-0.9,1.8-3.2,4.1-4.8,2.8c-2.7-2.1-6.3,2.3-8.6-5
	C41.4,94.6,41,91.5,40.4,90.7z"/>
</svg>
