<?xml version="1.0" encoding="utf-8"?>
<!-- Generator: Adobe Illustrator 17.1.0, SVG Export Plug-In . SVG Version: 6.00 Build 0)  -->
<!DOCTYPE svg PUBLIC "-//W3C//DTD SVG 1.1//EN" "http://www.w3.org/Graphics/SVG/1.1/DTD/svg11.dtd">
<svg version="1.1" id="Layer_1" xmlns="http://www.w3.org/2000/svg" xmlns:xlink="http://www.w3.org/1999/xlink" x="0px" y="0px"
	 viewBox="0 0 100 100" enable-background="new 0 0 100 100" xml:space="preserve">
<path fill="#414042" d="M85.2,39.4c-1.5-3.2-3.2-6.3-4.9-9.2c-1.9-3.5-3.9-7.1-5.6-10.8c-3.1-7-7.7-14.3-18.7-15.6
	c-2-0.2-3.6-1-5.4-1.8c-2.7-1.2-5.8-2.6-9.8-1.7c-2.8,0.6-6.3,3-9.7,5.2C29,6.9,27,8.2,25.6,8.8c-7.8,3.3-12,8.2-12.9,15.1
	c-1.6,12.5,5.1,23,11.6,33.1c2.6,4.1,5.1,7.9,7,11.8c0.6,1.3,1.2,2.5,1.8,3.8c2.5,5.5,5.1,11.1,10.1,15.4C50,93.8,61,98.1,68.5,99.8
	c1.4,0.3,2.8,0.3,4-0.1c4.8-1.4,5.6-7.3,5.6-7.6c1.1-9.6,3.7-18.5,6.3-26.8C87.2,56.6,89.3,48,85.2,39.4z M53.6,18.6
	c0.2-1.8,1.2-3.1,2.9-4c0.3-0.2,0.8-0.5,1.2-0.9c0.8-0.6,1.6-1.2,2.2-1.4c0.9-0.2,1.6,0.1,2.2,0.4c0.4,0.2,0.8,0.4,1.2,0.5
	c2.5,0.3,3.5,2.3,4.2,4.1c0.4,1,0.8,1.9,1.3,2.9c0.4,0.8,0.8,1.6,1.1,2.4c0.9,2.3,0.4,4.6-0.2,6.9c-0.6,2.2-1.2,4.5-1.4,7.1
	c0,0.1-0.2,1.6-1.3,2c-0.3,0.1-0.6,0.1-0.9,0c-1.7-0.4-4.2-1.6-5.7-3.1c-1.1-1.1-1.7-2.6-2.3-4.1c-0.1-0.3-0.3-0.7-0.4-1
	c-0.4-1-1-2-1.6-3.1C54.8,24.7,53.3,21.9,53.6,18.6z M22.9,23.4c0-0.5-0.1-1-0.2-1.5c-0.2-0.7-0.4-1.6-0.1-2.6
	c0.3-0.7,1-1.5,1.6-2.3c0.4-0.5,0.8-1,1-1.3c1.1-1.9,2.5-2.8,4.2-2.8c3.1,0,5.4,2.1,7.7,4.1c0.9,0.8,1.7,1.6,2.6,2.2
	c0.3,0.2,0.6,0.4,0.9,0.6c1.2,0.8,2.5,1.7,3.4,3.1c1.1,1.9,1.8,4.9,1.9,6.9c0,0.4,0,0.7-0.2,1c-0.5,1.2-2,1.2-2.1,1.2
	c-2.4-0.1-4.7,0.3-6.8,0.7c-2.2,0.4-4.4,0.7-6.4-0.7c-0.7-0.5-1.4-1-2.1-1.6c-0.8-0.6-1.6-1.3-2.4-1.8
	C24.4,27.8,22.8,26.3,22.9,23.4z M46.6,63.2c-1.9-0.2-3.5-1.1-5-1.9c-0.3-0.2-0.7-0.4-1-0.6c-1.1-0.6-2.3-1.1-3.6-1.6
	c-3.2-1.3-6.6-2.6-8.1-5.9c-0.9-1.8-0.6-3.6,0.8-5.7c0.2-0.4,0.5-1,0.8-1.7c0.5-1.1,1-2.2,1.6-2.9c0.9-0.9,1.8-1.1,2.7-1.2
	c0.6-0.1,1.1-0.2,1.6-0.5c2.9-1.5,5.2-0.6,7.1,0.6c1,0.6,2.1,1.1,3.1,1.6c0.9,0.4,1.8,0.9,2.7,1.4c2.4,1.4,3.2,3.7,3.9,6.3
	c0.7,2.4,1.4,4.9,2.7,7.4c0,0.1,0.8,1.6-0.2,2.7c-0.2,0.3-0.6,0.5-1,0.7C52.6,62.7,49.2,63.5,46.6,63.2z M76.6,72.5
	c-0.6,3.1-3.1,4.9-5.6,6.7c-1,0.7-1.9,1.4-2.7,2.2c-0.3,0.2-0.5,0.5-0.7,0.7c-1.1,1.1-2.2,2.2-3.7,2.7c-2.1,0.8-5.2,0.8-7.1,0.6
	c-0.4,0-0.7-0.2-1-0.4c-1.1-0.7-0.8-2.2-0.8-2.3c0.5-2.3,0.6-4.6,0.6-6.8c0-2.3,0.2-4.5,1.9-6.1c0.6-0.6,1.3-1.2,1.9-1.7
	c0.8-0.6,1.5-1.3,2.2-2.1c1.3-1.4,3-2.7,5.9-2c0.5,0.1,1,0.1,1.5,0.1c0.8,0,1.6-0.1,2.6,0.4c0.6,0.4,1.3,1.2,2,2.1
	c0.4,0.5,0.8,1,1.1,1.2C76.3,69.3,76.9,70.8,76.6,72.5z"/>
</svg>
