<?xml version="1.0" encoding="utf-8"?>
<!-- Generator: Adobe Illustrator 17.1.0, SVG Export Plug-In . SVG Version: 6.00 Build 0)  -->
<!DOCTYPE svg PUBLIC "-//W3C//DTD SVG 1.1//EN" "http://www.w3.org/Graphics/SVG/1.1/DTD/svg11.dtd">
<svg version="1.1" id="Layer_1" xmlns="http://www.w3.org/2000/svg" xmlns:xlink="http://www.w3.org/1999/xlink" x="0px" y="0px"
	 viewBox="0 0 100 100" enable-background="new 0 0 100 100" xml:space="preserve">
<g>
	<path fill="#231F20" d="M50,0C22.4,0,0,22.4,0,50s22.4,50,50,50s50-22.4,50-50S77.6,0,50,0z M36.9,70.2c-2.7,0-4.9-0.8-7.1-3.9
		h-0.1v14.8h-6.3V41.2h6v4h0.1c1.4-2.8,3.8-4.7,7.5-4.7c7.4,0,10.1,6.9,10.1,14.7C47.2,63,44.5,70.2,36.9,70.2z M76.5,69.5h-6.5
		V52.7H56.8v16.8h-6.5V31.1h6.5v15.5h13.1V31.1h6.5V69.5z"/>
	<path fill="#231F20" d="M35.4,46.3c-4,0-5.6,5.1-5.6,9c0,4,1.4,9.2,5.5,9.2c4.1,0,5.3-5.3,5.3-9.2C40.6,51.5,39.5,46.3,35.4,46.3z"
		/>
</g>
</svg>
