<?xml version="1.0" encoding="utf-8"?>
<!-- Generator: Adobe Illustrator 17.1.0, SVG Export Plug-In . SVG Version: 6.00 Build 0)  -->
<!DOCTYPE svg PUBLIC "-//W3C//DTD SVG 1.1//EN" "http://www.w3.org/Graphics/SVG/1.1/DTD/svg11.dtd">
<svg version="1.1" id="Layer_1" xmlns="http://www.w3.org/2000/svg" xmlns:xlink="http://www.w3.org/1999/xlink" x="0px" y="0px"
	 viewBox="0 0 100 100" enable-background="new 0 0 100 100" xml:space="preserve">
<g>
	<path fill="#231F20" d="M18.8,34.3h-2.3v11.7h2.3c3.3,0,6.2-1.3,6.2-5.7C25,35.9,22.1,34.3,18.8,34.3z"/>
	<polygon fill="#231F20" points="71.4,70.4 77,70.4 77,60.7 76.9,60.7 	"/>
	<path fill="#231F20" d="M48.5,33.7c-6.5,0-9.2,6.9-9.2,13.7c0,6.9,2.5,13.9,9.2,13.9s9.2-7,9.2-13.9C57.7,40.6,55,33.7,48.5,33.7z"
		/>
	<path fill="#231F20" d="M50,0C22.4,0,0,22.4,0,50s22.4,50,50,50s50-22.4,50-50S77.6,0,50,0z M68.8,46.8c1.5,0.6,3.2,1,5,1
		c1.9,0,4.7-0.9,4.7-3.2c0-2.6-2.1-3.5-4.9-3.5h-2.2v-3.5h2.1c3,0,5-1,5-2.9c0-2.2-1.8-2.9-3.8-2.9c-1.8,0-3.5,0.4-5,1.2l-0.3-3.6
		c1.8-0.7,3.9-1.1,6.3-1.1c2.8,0,7.4,1,7.4,5.7c0,3-1.9,4.5-4.2,5.4v0.1c2.9,0.4,4.3,2.6,4.3,5.3c0,5.3-4.8,6.7-8.6,6.7
		c-2,0-4.2-0.3-5.9-0.7L68.8,46.8z M19.2,52.1h-2.8v14.6H9.9V28.3h8.3c7.1,0,13.6,2.4,13.6,11.6C31.8,48.9,26.2,52.1,19.2,52.1z
		 M48.5,67.3c-10.5,0-16-8.2-16-20c0-11.8,5.6-19.7,16-19.7c10.2,0,16,8.1,16,19.7C64.5,59,58.9,67.3,48.5,67.3z M84.2,73.7h-2.9
		v4.6H77v-4.6h-9.7v-3.6L75.7,56h5.6v14.4h2.9V73.7z M85.2,36.8V33h9.1v3.8H85.2z"/>
</g>
</svg>
