<?xml version="1.0" encoding="utf-8"?>
<!-- Generator: Adobe Illustrator 17.1.0, SVG Export Plug-In . SVG Version: 6.00 Build 0)  -->
<!DOCTYPE svg PUBLIC "-//W3C//DTD SVG 1.1//EN" "http://www.w3.org/Graphics/SVG/1.1/DTD/svg11.dtd">
<svg version="1.1" id="Layer_1" xmlns="http://www.w3.org/2000/svg" xmlns:xlink="http://www.w3.org/1999/xlink" x="0px" y="0px"
	 viewBox="0 0 100 100" enable-background="new 0 0 100 100" xml:space="preserve">
<g>
	<path fill="#231F20" d="M41.9,61.3c0,2.4,1.6,3.5,3.8,3.5c1.8,0,3.2-1,4.1-2.5c1-1.6,1.2-3.6,1.2-5.8h-2.6
		C45.8,56.4,41.9,57,41.9,61.3z"/>
	<path fill="#231F20" d="M50,0C22.4,0,0,22.4,0,50s22.4,50,50,50s50-22.4,50-50S77.6,0,50,0z M34.5,69.5H27L15.2,40.8h-0.1v28.7H9.2
		V31.1h7.6l11.7,28.7h0.1V31.1h5.9V69.5z M51.5,69.5c-0.2-1.5-0.2-3.4-0.3-4.2h-0.1c-1.4,3.1-4.3,4.9-7,4.9c-4,0-7.9-3-7.9-8.4
		c0-4.2,1.6-6.7,3.9-8.1c2.3-1.4,5.2-1.6,7.6-1.6H51c0-4.6-1.6-6.1-5.1-6.1c-2.5,0-5,1.2-7,3.1l-0.2-6.3c2.3-1.3,5.4-2.1,7.9-2.1
		c6.9,0,9.8,3.6,9.8,11.9v3.6c0,2.9,0,5,0.1,7.1c0,2.1,0.1,4.1,0.3,6.3H51.5z M75.9,70.2C66,70.2,59,64,59,51
		c0-13.1,6.4-20.5,16.9-20.5c2,0,4.7,0.5,7,1.6l-0.4,6.5c-2.3-1.6-4.5-2-6.7-2c-6.4,0-10.3,6-10.3,13.9c0,7.8,3.9,13.7,10.5,13.7
		c2.4,0,5.3-0.7,6.8-1.6L83,69C80.7,69.6,78.3,70.2,75.9,70.2z M84.9,69.5V28.3h5.9v41.2H84.9z"/>
</g>
</svg>
