<?xml version="1.0" encoding="utf-8"?>
<!-- Generator: Adobe Illustrator 17.1.0, SVG Export Plug-In . SVG Version: 6.00 Build 0)  -->
<!DOCTYPE svg PUBLIC "-//W3C//DTD SVG 1.1//EN" "http://www.w3.org/Graphics/SVG/1.1/DTD/svg11.dtd">
<svg version="1.1" id="Layer_1" xmlns="http://www.w3.org/2000/svg" xmlns:xlink="http://www.w3.org/1999/xlink" x="0px" y="0px"
	 viewBox="0 0 100 100" enable-background="new 0 0 100 100" xml:space="preserve">
<path d="M50,32.3L29.2,52.1H0v38.5h44.7V78.9c0-3,2.4-5.4,5.4-5.4s5.4,2.4,5.4,5.4v11.7H100V52.1H70.5L50,32.3z M16.7,83.7h-7v-7h7
	V83.7z M16.7,69.8h-7v-7h7V69.8z M34.3,83.7h-7v-7h7V83.7z M34.3,69.8h-7v-7h7V69.8z M50,62.8c-4.9,0-9-4-9-9s4-9,9-9s9,4,9,9
	S54.9,62.8,50,62.8z M73,83.7h-7v-7h7V83.7z M83.4,62.8h7v7h-7V62.8z M83.4,76.7h7v7h-7V76.7z M73,69.8h-7v-7h7V69.8z M50,27.8
	l22.7,19.5H100L87.9,27.9H75.7V9.4h-1.8v18.5H65L50.2,16L34.3,28H12.1L0,47.3h27L50,27.8z M76.2,9.4h6.5v4.7h-6.5V9.4z"/>
</svg>
