<?xml version="1.0" encoding="utf-8"?>
<!-- Generator: Adobe Illustrator 17.1.0, SVG Export Plug-In . SVG Version: 6.00 Build 0)  -->
<!DOCTYPE svg PUBLIC "-//W3C//DTD SVG 1.1//EN" "http://www.w3.org/Graphics/SVG/1.1/DTD/svg11.dtd">
<svg version="1.1" id="Layer_1" xmlns="http://www.w3.org/2000/svg" xmlns:xlink="http://www.w3.org/1999/xlink" x="0px" y="0px"
	 viewBox="0 0 100 100" enable-background="new 0 0 100 100" xml:space="preserve">
<g>
	<path fill="#231F20" d="M51.8,41.9c3.6-1.7,4.2-5,3.2-7.6c-1-2.6-3.8-4.7-7.7-3.6c-1.5,0.4-2.7,1.9-3.7,4.1
		c0.6,2.5,1.5,4.5,2.7,5.8C47.4,41.8,49.3,43.1,51.8,41.9z"/>
	<path fill="#231F20" d="M49.8,62.8c2.6,0.4,4.4-0.3,5.3-2c1.1-2.4,0.3-6.2-1.7-8.1c-1.5-1.3-3.2-1.4-5.1-0.3
		c-2.2,1.3-3.7,2.9-4.6,4.7C44.9,60.1,46.9,62.4,49.8,62.8z"/>
	<path fill="#231F20" d="M50,0C22.4,0,0,22.4,0,50s22.4,50,50,50s50-22.4,50-50S77.6,0,50,0z M42,80.5l6.8-1.4
		c-6.7-7.4-9.8-14.3-9-20c0.1-0.7,0.3-1.5,0.5-2.1c-1-2.7-1.5-5.7-1.7-8.6c-0.3-4.8,0.3-9.9,1.8-13.8c-1.2-6.6,0.1-15.5,5.6-24.5
		c0.4-0.7,1.3-0.9,2-0.5c0.7,0.4,0.9,1.3,0.5,2c-4.2,6.8-5.6,13.3-5.6,18.5c1-1.1,2.1-1.9,3.4-2.3c5.7-1.7,9.8,1.6,11.3,5.4
		C59.2,37,58.3,42,53,44.6c-3.1,1.5-6.4,0.7-8.9-2c-0.7-0.8-1.4-1.8-2-2.9c-0.5,2.6-0.7,5.5-0.5,8.6c0.1,1.7,0.4,3.5,0.8,5.2
		c1.1-1.4,2.5-2.6,4.3-3.6c3-1.8,6.2-1.6,8.6,0.7c3.1,2.8,4.1,8,2.4,11.6c-1.4,2.9-4.5,4.3-8.4,3.7c-2.8-0.4-5-2.1-6.7-4.3
		c0.1,4.5,3,9.9,8.4,15.8l2.1-8.4l8.1,21.8L42,80.5z"/>
</g>
</svg>
