<?xml version="1.0" encoding="utf-8"?>
<!-- Generator: Adobe Illustrator 17.1.0, SVG Export Plug-In . SVG Version: 6.00 Build 0)  -->
<!DOCTYPE svg PUBLIC "-//W3C//DTD SVG 1.1//EN" "http://www.w3.org/Graphics/SVG/1.1/DTD/svg11.dtd">
<svg version="1.1" id="Capa_1" xmlns="http://www.w3.org/2000/svg" xmlns:xlink="http://www.w3.org/1999/xlink" x="0px" y="0px"
	 viewBox="0 0 56.7 56.7" enable-background="new 0 0 56.7 56.7" xml:space="preserve">
<path d="M56.7,44.2c0-0.3,0-0.7,0-1c0-0.3,0-0.6-0.1-1c-0.1-0.9-0.2-1.8-0.3-2.7c-0.2-1-0.4-2-0.7-3c-0.1-0.5-0.3-1-0.4-1.5
	c-0.1-0.2-0.1-0.4-0.3-0.5c-0.1,0-0.1,0-0.2,0c-0.5,0.1-0.9,0.3-1.4,0.4c-1,0.3-1.9,0.5-2.9,0.8c-1,0.3-2.1,0.6-3.1,0.9
	c-0.7,0.2-1.3,0.4-2,0.6c-0.1,0-0.1,0-0.2,0.1c0,0,0,0,0,0c-0.2,0.1-0.2,0.2-0.2,0.4c0.2,1,0.3,2,0.3,3c0,0.5,0,1.1,0,1.6
	c0,0.2,0,0.3,0,0.5c0,0.1,0,0.3,0,0.4c0,0.1,0,0.1,0,0.2c0,0,0-0.1,0-0.1c0,0.2,0,0.4-0.1,0.7c0,0.3-0.1,0.7-0.1,1
	c-0.1,0.7-0.2,1.3-0.4,2c0.4,0,0.7,0,1.1,0c0.9,0,1.8,0,2.7,0c1.1,0,2.2,0,3.3,0c1,0,2,0,2.9,0c0.5,0,1.1,0,1.6,0c0,0,0.1,0,0.1,0
	c0.2,0,0.3-0.1,0.3-0.3C56.7,45.9,56.7,45,56.7,44.2C56.7,44.1,56.7,44.4,56.7,44.2z"/>
<path d="M53.8,31.5c-0.1-0.2-0.2-0.4-0.3-0.7c-0.2-0.5-0.5-0.9-0.7-1.4c-0.2-0.4-0.4-0.8-0.7-1.1l-8,6.3c0,0,0,0,0,0
	c0.1,0.2,0.1,0.5,0.2,0.7c0.1,0.2,0.3,0.2,0.4,0.1c0.2-0.1,0.3-0.1,0.5-0.2c0.8-0.3,1.6-0.6,2.4-0.9c1-0.4,2-0.8,3-1.2
	c0.8-0.3,1.6-0.6,2.4-1c0.2-0.1,0.4-0.2,0.6-0.2c0.1,0,0.1-0.1,0.2-0.2C53.8,31.6,53.8,31.6,53.8,31.5z"/>
<path d="M47.4,22.4c-0.7-0.7-1.5-1.4-2.3-2.1c-0.2-0.2-0.4-0.3-0.6-0.5c-0.1-0.1-0.1-0.1-0.2-0.1c-0.1,0-0.2,0-0.2,0.1
	c0,0,0,0.1-0.1,0.1c-0.4,0.5-0.9,1.1-1.3,1.6c-0.7,0.8-1.4,1.7-2.1,2.5c-0.5,0.6-1,1.2-1.5,1.8c0,0.1-0.1,0.1-0.1,0.2c0,0,0,0,0,0
	c-0.1,0.1-0.1,0.2-0.1,0.3c0,0.1,0.1,0.2,0.2,0.2c0.5,0.5,1,1.1,1.5,1.6l8.6-4C48.6,23.6,48,23,47.4,22.4z"/>
<g>
	<path d="M36.2,24.2C36.2,24.2,36.2,24.2,36.2,24.2C36.2,24.2,36.2,24.3,36.2,24.2z"/>
	<path d="M41.7,18c-0.1-0.1-0.2-0.1-0.3-0.2c-0.1-0.1-0.2-0.1-0.3-0.2c-1.2-0.7-6.7-3.5-12.3-3.6c-0.2,0-0.5,0-0.7,0
		c-0.1,0-0.2,0-0.3,0c-0.1,0-0.2,0-0.3,0c-0.1,0.1-0.2,0.2-0.2,0.3c0,0.8-0.1,1.5-0.1,2.3c0,1-0.1,2-0.1,3c0,0.2,0,0.4,0,0.6
		c0,0,0,0.1,0,0.1c0,0.1,0,0.1,0.1,0.2c0.1,0.1,0.3,0.1,0.4,0.1c2,0.3,5.2,1.3,9.3,3.8c0.1,0.1,0.2,0.1,0.3,0.2
		c0.1,0.1,0.2,0.1,0.3,0.1c0.1,0,0.2-0.1,0.2-0.2c0.1-0.2,0.3-0.4,0.4-0.6c0.5-0.8,1.1-1.6,1.6-2.4c0.5-0.8,1.1-1.7,1.7-2.5
		c0.2-0.2,0.3-0.5,0.5-0.7c0,0,0-0.1,0.1-0.1C41.8,18.2,41.8,18.1,41.7,18z"/>
</g>
<path d="M21.7,20.8c0.5-0.1,1-0.1,1.5-0.1c0.3,0,0.5,0,0.7,0c0.1,0,0.2,0,0.4,0c0.1,0,0.2,0,0.4,0c0.3-0.1,0.2-0.4,0.2-0.7
	c-0.1-0.9-0.1-1.9-0.2-2.8c-0.1-0.8-0.1-1.7-0.2-2.5c0-0.1,0-0.2,0-0.2c-0.1-0.2-0.4-0.1-0.6-0.1c-0.2,0-0.5,0.1-0.7,0.1
	c-1,0.2-2,0.4-3,0.6c-2,0.5-4,1.4-5.9,2.4c-0.9,0.5-1.8,1.1-2.6,1.6c-0.2,0.1-0.4,0.3-0.6,0.4c-0.1,0.1-0.2,0.3-0.1,0.4
	c0,0.1,0.1,0.1,0.1,0.2c0.5,0.8,1.1,1.6,1.6,2.4c0.2,0.3,0.4,0.6,0.6,0.9c0.1,0.1,0.3,0.3,0.4,0.2c0.4-0.2,0.9-0.5,1.3-0.7
	c0.9-0.4,1.9-0.8,2.9-1.1c1-0.3,2-0.6,3-0.7C21.3,20.8,21.5,20.8,21.7,20.8C21.8,20.8,21.6,20.8,21.7,20.8z"/>
<path d="M5.3,25.4c-0.5,0.7-1,1.5-1.5,2.2c-0.5,0.9-1,1.8-1.4,2.8c-0.2,0.5-0.4,0.9-0.6,1.4c-0.1,0.2-0.2,0.5-0.3,0.7
	c0,0.1-0.1,0.2-0.1,0.3c0,0.1-0.1,0.2,0,0.3c0,0.2,0.2,0.2,0.4,0.3c0.2,0.1,0.4,0.2,0.6,0.2c0.4,0.2,0.9,0.3,1.3,0.5
	c0,0,0.1,0,0.1,0c0.2,0.1,0.3,0,0.4-0.2c0.2-0.4,0.4-0.9,0.7-1.3c0.5-0.9,1.1-1.8,1.7-2.6c0.5-0.7,1.1-1.4,1.7-2
	c0.7-0.8,1.5-1.5,2.3-2.2c0.4-0.3,0.8-0.6,1.2-0.9c0.1-0.1,0.2-0.3,0-0.4c0,0,0,0,0-0.1c-0.6-0.7-1.2-1.4-1.8-2.1
	c-0.2-0.3-0.5-0.6-0.7-0.8c0,0,0,0,0,0c-0.1-0.1-0.3-0.1-0.4,0c-0.4,0.3-0.7,0.7-1.1,1.1C6.8,23.4,6,24.4,5.3,25.4
	C5.2,25.5,5.3,25.3,5.3,25.4z"/>
<path d="M0.6,35.9C0.2,37.7,0,39.6,0,41.5c0,1.7,0.1,3.3,0.4,5c0,0.2,0,0.5,0.3,0.5c0.1,0,0.2,0,0.2,0c0.2,0,0.4,0,0.6,0
	c0.1,0,0.2-0.1,0.2-0.1c0.1-0.1,0.1-0.2,0-0.3c0-0.3,0-0.5,0-0.8c0-0.5,0-1,0-1.6c0-0.3,0-0.6,0-0.9c0,0,0,0,0,0
	c0.1-1.6,0.3-3.2,0.7-4.7c0.1-0.5,0.3-1,0.4-1.5c0-0.1,0.1-0.2,0.1-0.3c0-0.1,0.1-0.2,0.1-0.3c0-0.1-0.1-0.3-0.2-0.3
	c-0.4-0.1-0.8-0.2-1.2-0.3c-0.2-0.1-0.4-0.1-0.6-0.2c0,0-0.1,0-0.1,0C0.8,35.6,0.6,35.7,0.6,35.9C0.6,36,0.6,35.7,0.6,35.9z"/>
<path d="M21,44c0.8,1.6,2.4,2.6,4.2,2.6c0.9,0,1.7-0.3,2.5-0.8c0.1-0.1,0.3-0.2,0.4-0.3c0.3-0.3,0.6-0.5,0.9-0.7
	c0.6-0.5,1.1-0.9,1.7-1.4c0.8-0.6,1.5-1.2,2.3-1.8c0.8-0.7,1.7-1.3,2.5-2c0.9-0.7,1.7-1.4,2.6-2.1c0.8-0.6,1.6-1.3,2.4-1.9
	c0.7-0.5,1.3-1,2-1.6c0.4-0.3,0.8-0.7,1.3-1c0.1-0.1,0.3-0.2,0.4-0.3c0.5-0.4,1-0.8,1.6-1.2c0.8-0.7,1.7-1.3,2.5-2
	c0.6-0.5,1.2-1,1.8-1.5c0.3-0.3,0.7-0.5,1-0.8c0.8-0.6,1.6-1.3,2.4-1.9c0.2-0.1,0.4-0.3,0.6-0.5c0.3-0.2,0.4-0.5,0.2-0.8
	c-0.1-0.3-0.5-0.6-0.9-0.5c-0.1,0-0.2,0.1-0.3,0.1c-0.1,0.1-0.3,0.1-0.4,0.2c-0.4,0.2-0.8,0.4-1.3,0.6c-0.9,0.4-1.7,0.8-2.6,1.2
	c-0.3,0.2-0.6,0.3-1,0.5c-0.9,0.4-1.8,0.8-2.7,1.3c-0.9,0.4-1.8,0.8-2.6,1.3c-0.3,0.1-0.5,0.2-0.8,0.4c-0.3,0.2-0.6,0.3-1,0.5
	c-0.6,0.3-1.3,0.6-1.9,0.9c-0.8,0.4-1.7,0.8-2.5,1.2c-1,0.5-1.9,0.9-2.9,1.4c-1,0.5-2,0.9-3,1.4c-0.9,0.4-1.9,0.9-2.8,1.3
	c-0.8,0.4-1.6,0.7-2.4,1.1c-0.5,0.3-1.1,0.5-1.6,0.8c-0.2,0.1-0.4,0.2-0.6,0.3c-1.3,0.6-2.3,1.9-2.6,3.4C20.5,42.2,20.6,43.2,21,44
	C21.3,44.7,19.9,41.7,21,44z M26.7,40.3c0.6,0.5,0.9,1.2,0.8,2c-0.1,0.8-0.5,1.4-1.2,1.8c-0.7,0.3-1.5,0.3-2.1,0
	c-0.7-0.4-1.1-1.1-1.1-1.8c0-0.8,0.3-1.5,0.9-2c0.6-0.4,1.4-0.5,2.1-0.3C26.3,40,26.6,40.2,26.7,40.3z"/>
</svg>
