<?xml version="1.0" encoding="utf-8"?>
<!-- Generator: Adobe Illustrator 17.1.0, SVG Export Plug-In . SVG Version: 6.00 Build 0)  -->
<!DOCTYPE svg PUBLIC "-//W3C//DTD SVG 1.1//EN" "http://www.w3.org/Graphics/SVG/1.1/DTD/svg11.dtd">
<svg version="1.1" id="Capa_1" xmlns="http://www.w3.org/2000/svg" xmlns:xlink="http://www.w3.org/1999/xlink" x="0px" y="0px"
	 viewBox="0 0 950 950" enable-background="new 0 0 950 950" xml:space="preserve">
<path d="M949.9,741.3c-0.2-5.6-0.3-11.2-0.6-16.8c-0.2-5.3-0.8-10.7-1.2-16c-1.2-15.1-2.9-30.3-5.5-45.2c-3-17-6.3-34.1-10.9-50.8
	c-2.3-8.2-4.6-16.3-7.2-24.4c-0.9-2.9-1.5-7.4-4.8-8.6c-1-0.4-2.1-0.3-3.2,0c-7.9,2.2-15.7,4.5-23.6,6.7
	c-16.1,4.6-32.2,9.2-48.4,13.8c-17.2,4.9-34.4,9.8-51.6,14.7c-11.1,3.2-22.3,6.3-33.4,9.5c-1,0.3-2,0.6-3,0.9
	c-0.2,0-0.3,0.1-0.5,0.1c-3.3,0.9-3.8,4-3.3,6.9c3.1,16.6,5,33.2,5.8,50.1c0.4,8.9,0.4,17.8,0.2,26.7c-0.1,2.9-0.2,5.8-0.3,8.8
	c-0.1,2.5-0.2,5-0.3,7.4c0,0.9,0,1.9-0.1,2.8c0.1-0.6,0-1.4,0-2c0,3.7-0.6,7.5-1,11.2c-0.7,5.8-1.4,11.5-2.3,17.3
	c-1.6,11.1-3.9,22.1-6.8,32.9c6.2,0,12.4,0,18.6,0c15,0,30,0,44.9,0c18.4,0,36.8,0,55.2,0c16.4,0,32.8,0,49.2,0c9,0,18.1,0,27.1,0
	c0.4,0,0.9,0,1.3,0c3.1,0,5-2.4,5.1-5.3C949.9,768.5,950,754.9,949.9,741.3C949.8,739.2,949.9,743.4,949.9,741.3z"/>
<path d="M900.8,527.2c-1.7-3.7-3.5-7.4-5.3-11c-3.8-7.7-7.7-15.2-11.7-22.7c-3.5-6.5-7.2-12.9-11.1-19.2l0.1-0.1
	c-5.3-8.7-10.9-17.3-16.7-25.7c-10.3-15-21.5-29.4-33.3-43.1l0,0c-8.6-9.9-18.9-20.8-28-30c-12.3-12.3-25.4-23.7-38.9-34.7
	c-3.2-2.6-6.4-5.1-9.7-7.6c-1.3-1-2.4-1.9-4.1-2c-1.5-0.1-3,0.6-4,1.8c-0.4,0.5-0.8,1-1.2,1.5c-7.5,9.1-15,18.2-22.6,27.3
	c-11.6,14-23.1,28-34.7,42c-8.4,10.2-16.8,20.3-25.2,30.5c-0.8,0.9-1.5,1.8-2.3,2.7c-0.1,0.1-0.2,0.2-0.3,0.4c-1,1.2-1.4,2.8-1,4.3
	c0.4,1.8,1.9,2.9,3.1,4.1c8.2,8.1,30.8,34.7,33.7,38.5c9.2,12.5,18.1,25.4,25.5,39.1c4,7.3,8,14.7,11.5,22.3
	c3.7,7.9,7.1,15.8,10.3,23.9c1.4,3.7,2.7,7.4,4,11.1l-0.1,0.1c0,0.1,0.1,0.3,0.1,0.4c1.3,3.8,2.3,7.7,3.9,11.4
	c1.2,2.8,4.3,3.5,6.9,2.5c2.8-1.1,5.7-2.3,8.5-3.4c13.2-5.3,26.4-10.6,39.6-15.9c17-6.8,34-13.7,51-20.5
	c13.4-5.4,26.8-10.8,40.1-16.1c3.2-1.3,6.5-2.6,9.7-3.9c1.4-0.6,2.4-1.7,2.9-3.1C902.2,530.3,901.6,528.8,900.8,527.2z"/>
<g>
	<path d="M606,405.8c0,0-0.1-0.1-0.3-0.1C606.2,405.9,606.9,406.4,606,405.8z"/>
	<path d="M698.3,300.9c-1.4-1.1-3.3-1.9-4.9-2.9c-1.8-1-3.6-2.1-5.4-3.1c-19.9-10.9-113.1-58.7-205.5-59.6c-4.1,0-8.2-0.4-12.3-0.5
		c-1.9,0-3.8-0.1-5.7-0.1c-1.6,0-3.4-0.3-4.9,0.4c-2.3,1.1-2.8,3.2-2.9,5.4c-0.6,12.9-1.2,25.8-1.9,38.7c-0.8,17-1.6,34.1-2.4,51.1
		c-0.2,3.5-0.3,7-0.5,10.5c0,0.7-0.1,1.3-0.1,2c-0.1,1.1,0.2,2.3,0.9,3.2c1.6,2.3,4.6,2.1,7.1,2.5c33.5,5.4,87.7,21.4,156,64.1
		c1.7,1.1,3.2,2.4,4.8,3.6c1.4,1,2.7,1.7,4.5,1.4c1.9-0.3,2.9-1.7,3.9-3.1c2.3-3.4,4.5-6.9,6.8-10.3c9-13.6,17.9-27.3,26.9-40.9
		c9.2-14.1,18.5-28.1,27.7-42.2c2.6-3.9,5.2-7.9,7.8-11.8c0.4-0.6,0.8-1.3,1.3-1.9C700.7,305.4,700.3,302.5,698.3,300.9z"/>
</g>
<path d="M364.4,348.2c8.4-1.1,16.8-1.8,25.2-2.4c4.2-0.3,8.3-0.3,12.5-0.5c2-0.1,4-0.1,5.9-0.1c2,0,4.1,0.2,6.1-0.1
	c5.5-0.9,4-7.5,3.7-11.3c-1-15.9-2.1-31.8-3.1-47.7c-0.9-13.9-1.8-27.9-2.7-41.8c-0.1-1.4-0.1-2.8-0.8-4.1c-2-3.5-6-2.3-9.3-1.9
	c-4.1,0.5-8.1,1.1-12.2,1.7c-17.2,2.6-34.2,6.2-51.1,10.7c-34.3,9.1-67.4,22.8-98.6,39.8c-15.2,8.3-29.8,17.7-44.1,27.5
	c-3.3,2.2-6.4,4.7-9.6,7c-2.1,1.6-2.6,4.6-1.1,6.8c0.7,1.1,1.5,2.2,2.2,3.3c9.1,13.5,18.3,26.9,27.4,40.4c3.4,4.9,6.7,9.9,10.1,14.8
	c1.6,2.4,4.2,4.3,7.2,2.6c7.2-4.1,14.5-8,22-11.6c15.6-7.5,31.5-13.9,48-19.2c16.7-5.4,33.7-9.3,51-12.3
	C357,349.2,360.7,348.7,364.4,348.2C365.8,348,361.7,348.6,364.4,348.2z"/>
<path d="M88.2,425.2C89.2,423.7,87.1,426.7,88.2,425.2L88.2,425.2z"/>
<path d="M30.4,532.7c-1.4,3.9-2.9,7.7-4.2,11.6c-0.6,1.8-1.2,3.6-1.8,5.4c-0.5,1.6-1.2,3.2-0.7,4.9c0.8,2.8,3.6,3.5,6,4.4
	c3.5,1.3,7,2.7,10.5,4c7.4,2.8,14.9,5.7,22.3,8.5c0.6,0.2,1.2,0.5,1.8,0.7c2.7,1,5.2-0.4,6.4-2.8c3-6.4,6.1-12.7,9.5-18.9
	l-41.6-37.9C35.6,519.3,32.9,526,30.4,532.7z"/>
<path d="M195.7,410.2c-0.3-0.3-0.5-0.6-0.8-0.9c-9.9-11.6-19.7-23.1-29.6-34.7c-3.9-4.6-7.9-9.3-11.8-13.9c-0.2-0.3-0.5-0.5-0.7-0.8
	c-2-2.4-5.4-2.1-7.5-0.1c-6,5.8-12.1,11.6-17.7,17.7c-14,15.1-27.6,30.7-39.4,47.6c-3,4.3-6.1,8.6-9,13l60,29.3
	c11.4-12.4,23.6-24,36.4-34.9c6.3-5.3,12.8-10.3,19.3-15.3C197.2,415.7,197.5,412.3,195.7,410.2z"/>
<path d="M10.2,601.6C3.9,632.5-0.1,664.1,0,695.7c0.1,27.9,1.9,55.8,6.9,83.3c0.6,3.3,0.8,7.6,4.9,8.2c1.3,0.2,2.7,0.1,4,0.1
	c3.5,0,7,0.3,10.5,0c1.5-0.1,2.8-0.9,3.7-2.1c1.1-1.5,0.9-3.2,0.8-4.9c-0.3-4.4-0.5-8.8-0.6-13.2c-0.3-8.7-0.2-17.3,0-26
	c0.1-5,0.8-10.1,0.6-15.1c0,0.1,0,0.1,0,0.2c2-26.6,5.5-53,12.2-78.8c2.1-8.2,4.4-16.3,6.9-24.4c0.6-1.9,1.3-3.8,1.9-5.8
	c0.6-1.8,1.6-3.8,1.6-5.7c0-2.3-1.6-4.3-3.8-4.9c-6.8-1.8-13.6-3.6-20.4-5.4c-3.6-1-7.1-1.9-10.7-2.9c-0.7-0.2-1.4-0.4-2-0.5
	C13.6,597.1,10.7,598.8,10.2,601.6C9.9,602.8,10.7,598.8,10.2,601.6z"/>
<path d="M481,755c18.8-23.1,22.4-55.8,9.2-82.5c-6.5-13.1-16.8-24.1-29.3-31.6c-2.5-1.5-5.1-2.8-7.8-4.1c-6-2.9-12-5.9-18.1-8.8
	c-11-5.4-22-10.8-33.1-16.1c-14.5-7.1-28.9-14.1-43.4-21.2c-16.3-8-32.6-15.9-49-23.9c-16.6-8.1-33.3-16.2-49.9-24.3
	c-15.4-7.5-30.7-15-46.1-22.5c-12.5-6.1-25.1-12.2-37.6-18.4c-8.2-4-16.3-8-24.5-11.9c-2.6-1.3-5.2-2.5-7.8-3.8
	c-9.9-4.9-19.9-9.7-29.8-14.6c-16.3-7.9-32.6-15.9-48.8-23.8c-11.8-5.8-23.7-11.5-35.5-17.3c-6.3-3.1-12.6-6.1-18.9-9.2
	c-15.5-7.6-31.1-15.2-46.6-22.8c-3.7-1.8-7.3-3.6-11-5.4c-5-2.4-10.7-1.6-14.6,2.4c-4.3,4.5-5.1,11.6-1.1,16.6
	c1.1,1.4,2.5,2.4,3.8,3.5c1.8,1.5,3.6,3,5.5,4.4c6.1,5,12.2,9.9,18.4,14.9c12.3,10,24.7,20,37,30.1c4.7,3.8,9.3,7.6,14,11.3
	c12.8,10.4,25.6,20.8,38.5,31.2c12.7,10.3,25.4,20.6,38.1,30.9c3.6,3,7.3,5.9,10.9,8.9c4.7,3.8,9.3,7.6,14,11.4
	c9.1,7.4,18.2,14.8,27.3,22.1c12.2,9.9,24.4,19.8,36.6,29.7c14,11.3,27.9,22.7,41.9,34c14.4,11.7,28.8,23.4,43.2,35.1
	c13.5,11,27.1,22,40.6,33c11.3,9.2,22.6,18.4,34,27.6c7.8,6.3,15.6,12.7,23.4,19c2.9,2.4,5.9,4.8,8.8,7.2
	c19.4,15.8,45.9,21.1,70,14.1C457.9,775.8,471.2,767,481,755C488.6,745.6,454.3,787.8,481,755z M383.6,695
	c2.8-12.2,11.8-22.4,23.6-26.8c11.9-4.4,25.7-2.4,35.8,5.4c9.9,7.5,15.5,19.8,14.7,32.2c-0.8,12.7-8.1,24.3-19.2,30.5
	c-11.1,6.2-24.9,6.3-36.1,0.3c-10.9-5.9-18.4-17.1-19.6-29.4C382.4,703,382.7,698.9,383.6,695z"/>
</svg>
