<?xml version="1.0" encoding="utf-8"?>
<!-- Generator: Adobe Illustrator 17.1.0, SVG Export Plug-In . SVG Version: 6.00 Build 0)  -->
<!DOCTYPE svg PUBLIC "-//W3C//DTD SVG 1.1//EN" "http://www.w3.org/Graphics/SVG/1.1/DTD/svg11.dtd">
<svg version="1.1" id="Layer_1" xmlns="http://www.w3.org/2000/svg" xmlns:xlink="http://www.w3.org/1999/xlink" x="0px" y="0px"
	 viewBox="0 0 500 500" enable-background="new 0 0 500 500" xml:space="preserve">
<g>
	<path fill="#231F20" d="M250,500c-69.4,0-125-56.9-125-125c0-44.4,23.6-86.1,62.5-108.3V62.5C187.5,27.8,215.3,0,250,0
		s62.5,27.8,62.5,62.5v202.8c38.9,22.2,62.5,63.9,62.5,108.3C375,443.1,319.4,500,250,500z M250,20.8c-23.6,0-43.1,19.4-43.1,43.1
		v213.9l-5.6,2.8c-34.7,18.1-56.9,54.2-56.9,93.1c0,58.3,47.2,105.6,104.2,105.6s105.6-47.2,105.6-105.6c0-38.9-22.2-75-56.9-93.1
		l-4.2-2.8V62.5C293.1,38.9,273.6,20.8,250,20.8z"/>
	<path fill="#231F20" d="M269.4,297.2V161.1c0-13.9-9.7-19.4-18.1-19.4c-8.3,0-18.1,5.6-18.1,19.4v136.1
		c-34.7,8.3-61.1,38.9-61.1,76.4c0,43.1,34.7,79.2,79.2,79.2c43.1,0,77.8-34.7,77.8-79.2C329.2,336.1,304.2,305.6,269.4,297.2z"/>
</g>
</svg>
