<?xml version="1.0" encoding="utf-8"?>
<!-- Generator: Adobe Illustrator 17.1.0, SVG Export Plug-In . SVG Version: 6.00 Build 0)  -->
<!DOCTYPE svg PUBLIC "-//W3C//DTD SVG 1.1//EN" "http://www.w3.org/Graphics/SVG/1.1/DTD/svg11.dtd">
<svg version="1.1" id="Layer_1" xmlns="http://www.w3.org/2000/svg" xmlns:xlink="http://www.w3.org/1999/xlink" x="0px" y="0px"
	 viewBox="0 0 100 100" enable-background="new 0 0 100 100" xml:space="preserve">
<path fill="#231F20" d="M87.2,94.5c-1.4-0.5-2.8-1.1-4.2-1.7c-1.4-0.6-2.8-1.2-4.1-1.9l-0.8-0.4l-1.6,1c-0.2,0.1-0.6,0.5-1,0.7
	c-0.4,0.2-0.8,0.5-1.3,0.7c-0.9,0.4-1.8,0.7-2.8,0.9c-1,0.2-2,0.3-3,0.4c-0.5,0-1,0.1-1.5,0.1l-0.3,0l0,0l-0.1,0l-0.2,0l-0.9-0.1
	c-0.5-0.1-0.8-0.2-1.2-0.2c-0.4-0.1-0.9-0.2-1.3-0.4c-0.9-0.3-1.7-0.8-2.5-1.2c-0.8-0.5-1.5-1.1-2.2-1.7c-0.4-0.3-0.7-0.7-1-1
	c-0.3-0.3-0.7-0.8-0.8-1l-1.9-2.8l-2.7,2.1c-0.4,0.3-1,0.7-1.5,1.1l-1.6,1c-1.1,0.7-2.2,1.3-3.3,1.9c-2.2,1.1-4.6,1.9-6.7,2.1
	c-0.1,0-0.4,0-0.3,0.1L38,94c-0.3,0-0.7,0-1,0c-0.5,0-1.1,0-1.7-0.1c-1.2-0.1-2.5-0.3-3.7-0.7c-1.2-0.3-2.5-0.6-3.7-1
	c-1.2-0.4-2.5-0.9-3.6-1.3L23,90.4l-0.9,0.5c-0.6,0.3-1.3,0.8-2,1.1c-0.7,0.4-1.4,0.7-2.1,1c-1.5,0.6-2.9,1.2-4.5,1.8
	c-3,1.1-6.2,1.8-9.5,2.2c1.6,0.3,3.3,0.6,5,0.7c1.7,0.1,3.4,0,5.1-0.2c1.7-0.2,3.4-0.5,5.1-1c0.8-0.2,1.7-0.5,2.5-0.7
	c0.4-0.1,0.9-0.3,1.3-0.4c1,0.6,2,1.1,3,1.5c1.3,0.6,2.7,1.2,4.1,1.6c1.4,0.5,2.9,0.8,4.4,1.1c0.7,0.1,1.5,0.2,2.4,0.3
	c0.4,0,0.7,0,1.1,0.1l0.5,0l0.7,0c1.7,0,3.3-0.4,4.8-0.9c1.5-0.4,2.9-1,4.3-1.7c1.4-0.6,2.7-1.4,3.9-2.1c0.4-0.3,0.8-0.6,1.3-0.8
	c0.2,0.2,0.4,0.4,0.6,0.6c1,0.9,2.1,1.7,3.3,2.4c0.6,0.3,1.2,0.7,1.8,0.9c0.6,0.3,1.3,0.5,1.9,0.7c0.7,0.2,1.4,0.3,2,0.5
	c0.7,0.1,1.6,0.2,2.2,0.2l0.9,0l0.6,0l0.5,0c0.6-0.1,1.3-0.1,1.9-0.2c1.3-0.2,2.5-0.5,3.8-0.9c1.2-0.4,2.4-1,3.6-1.7
	c0.6-0.4,1.1-0.7,1.7-1.2c0.2-0.2,0.4-0.4,0.6-0.6c1.1,0.3,2.1,0.6,3.2,0.8c1.5,0.4,3.1,0.6,4.7,0.9c1.6,0.2,3.1,0.4,4.7,0.4
	c1.6,0,3.2-0.1,4.7-0.3C92.9,96.5,90,95.5,87.2,94.5z"/>
<path fill="#231F20" d="M87.2,73.1c-1.4-0.5-2.8-1.1-4.2-1.7c-1.4-0.6-2.8-1.2-4.1-1.9L78.1,69l-1.6,1c-0.2,0.1-0.6,0.5-1,0.7
	c-0.4,0.2-0.8,0.5-1.3,0.7c-0.9,0.4-1.8,0.7-2.8,0.9c-1,0.2-2,0.3-3,0.4c-0.5,0-1,0.1-1.5,0.1l-0.3,0l0,0l-0.1,0l-0.2,0l-0.9-0.1
	c-0.5-0.1-0.8-0.2-1.2-0.2c-0.4-0.1-0.9-0.2-1.3-0.4c-0.9-0.3-1.7-0.8-2.5-1.2c-0.8-0.5-1.5-1.1-2.2-1.7c-0.4-0.3-0.7-0.7-1-1
	c-0.3-0.3-0.7-0.8-0.8-1l-1.9-2.8l-2.7,2.1c-0.4,0.3-1,0.7-1.5,1.1l-1.6,1c-1.1,0.7-2.2,1.3-3.3,1.9c-2.2,1.1-4.6,1.9-6.7,2.1
	c-0.1,0-0.4,0-0.3,0.1l-0.5,0c-0.3,0-0.7,0-1,0c-0.5,0-1.1,0-1.7-0.1c-1.2-0.1-2.5-0.3-3.7-0.7c-1.2-0.3-2.5-0.6-3.7-1
	c-1.2-0.4-2.5-0.9-3.6-1.3L23,68.9l-0.9,0.5c-0.6,0.3-1.3,0.8-2,1.1c-0.7,0.4-1.4,0.7-2.1,1c-1.5,0.6-2.9,1.2-4.5,1.8
	c-3,1.1-6.2,1.8-9.5,2.2c1.6,0.3,3.3,0.6,5,0.7c1.7,0.1,3.4,0,5.1-0.2c1.7-0.2,3.4-0.5,5.1-1c0.8-0.2,1.7-0.5,2.5-0.7
	c0.4-0.1,0.9-0.3,1.3-0.4c1,0.6,2,1.1,3,1.5c1.3,0.6,2.7,1.2,4.1,1.6c1.4,0.5,2.9,0.8,4.4,1.1c0.7,0.1,1.5,0.2,2.4,0.3
	c0.4,0,0.7,0,1.1,0.1l0.5,0l0.7,0c1.7,0,3.3-0.4,4.8-0.9c1.5-0.4,2.9-1,4.3-1.7c1.4-0.6,2.7-1.4,3.9-2.1c0.4-0.3,0.8-0.6,1.3-0.8
	c0.2,0.2,0.4,0.4,0.6,0.6c1,0.9,2.1,1.7,3.3,2.4c0.6,0.3,1.2,0.7,1.8,0.9c0.6,0.3,1.3,0.5,1.9,0.7c0.7,0.2,1.4,0.3,2,0.5
	c0.7,0.1,1.6,0.2,2.2,0.2l0.9,0l0.6,0l0.5,0c0.6-0.1,1.3-0.1,1.9-0.2c1.3-0.2,2.5-0.5,3.8-0.9c1.2-0.4,2.4-1,3.6-1.7
	c0.6-0.4,1.1-0.7,1.7-1.2c0.2-0.2,0.4-0.4,0.6-0.6c1.1,0.3,2.1,0.6,3.2,0.8c1.5,0.4,3.1,0.6,4.7,0.9c1.6,0.2,3.1,0.4,4.7,0.4
	c1.6,0,3.2-0.1,4.7-0.3C92.9,75.1,90,74.1,87.2,73.1z"/>
<path fill="#231F20" d="M83,28.5c-1.4-0.6-2.8-1.2-4.1-1.9l-0.8-0.4l-1.6,1c-0.2,0.1-0.6,0.5-1,0.7c-0.4,0.2-0.8,0.5-1.3,0.7
	c-0.9,0.4-1.8,0.7-2.8,0.9c-1,0.2-2,0.3-3,0.4c-0.5,0-1,0.1-1.5,0.1l-0.3,0l0,0l-0.1,0l-0.2,0l-0.9-0.1c-0.5-0.1-0.8-0.2-1.2-0.2
	c-0.4-0.1-0.9-0.2-1.3-0.4c-0.9-0.3-1.7-0.8-2.5-1.2c-0.8-0.5-1.5-1.1-2.2-1.7c-0.4-0.3-0.7-0.7-1-1c-0.3-0.3-0.6-0.8-0.8-1
	l-1.9-2.8l-2.7,2.1c-0.4,0.3-1,0.7-1.5,1.1l-1.6,1c-1.1,0.7-2.2,1.3-3.3,1.9c-2.2,1.1-4.6,1.9-6.7,2.1c-0.1,0-0.4,0-0.3,0.1l-0.5,0
	c-0.3,0-0.7,0-1,0c-0.5,0-1.1,0-1.7-0.1c-1.2-0.1-2.5-0.3-3.7-0.7c-1.2-0.3-2.5-0.6-3.7-1c-1.2-0.4-2.5-0.9-3.6-1.3L23,26l-0.9,0.5
	c-0.6,0.3-1.3,0.8-2,1.1c-0.7,0.4-1.4,0.7-2.1,1c-1.5,0.6-2.9,1.2-4.5,1.8c-3,1.1-6.2,1.8-9.5,2.2c1.6,0.3,3.3,0.6,5,0.7
	c1.7,0.1,3.4,0,5.1-0.2c1.7-0.2,3.4-0.5,5.1-1c0.8-0.2,1.7-0.5,2.5-0.7c0.4-0.1,0.9-0.3,1.3-0.4c1,0.6,2,1.1,3,1.5
	c1.3,0.6,2.7,1.2,4.1,1.6c1.4,0.5,2.9,0.8,4.4,1.1c0.7,0.1,1.5,0.2,2.4,0.3c0.4,0,0.7,0,1.1,0.1l0.5,0l0.7,0c1.7,0,3.3-0.4,4.8-0.9
	c1.5-0.4,2.9-1,4.3-1.7c1.4-0.6,2.7-1.4,3.9-2.1c0.4-0.3,0.8-0.6,1.3-0.8c0.2,0.2,0.4,0.4,0.6,0.6c1,0.9,2.1,1.7,3.3,2.4
	c0.6,0.3,1.2,0.7,1.8,0.9c0.6,0.3,1.3,0.5,2,0.7c0.7,0.2,1.4,0.3,2,0.5c0.7,0.1,1.6,0.2,2.2,0.2l0.9,0l0.6,0l0.5,0
	c0.6-0.1,1.3-0.1,1.9-0.2c1.3-0.2,2.5-0.5,3.8-0.9c1.2-0.4,2.4-1,3.6-1.7c0.6-0.4,1.1-0.7,1.7-1.2c0.2-0.2,0.4-0.4,0.6-0.6
	c1.1,0.3,2.1,0.6,3.2,0.8c1.5,0.4,3.1,0.6,4.7,0.9c1.6,0.2,3.1,0.4,4.7,0.4c1.6,0,3.2-0.1,4.7-0.3c-3.1-0.5-6-1.4-8.8-2.5
	C85.8,29.7,84.4,29.1,83,28.5z"/>
<path fill="#231F20" d="M83,49.9c-1.4-0.6-2.8-1.2-4.1-1.9l-0.8-0.4l-1.6,1c-0.2,0.1-0.6,0.5-1,0.7c-0.4,0.2-0.8,0.5-1.3,0.7
	c-0.9,0.4-1.8,0.7-2.8,0.9c-1,0.2-2,0.3-3,0.4c-0.5,0-1,0.1-1.5,0.1l-0.3,0l0,0l-0.1,0l-0.2,0l-0.9-0.1c-0.5-0.1-0.8-0.2-1.2-0.2
	c-0.4-0.1-0.9-0.2-1.3-0.4c-0.9-0.3-1.7-0.8-2.5-1.2c-0.8-0.5-1.5-1.1-2.2-1.7c-0.4-0.3-0.7-0.7-1-1c-0.3-0.3-0.7-0.8-0.8-1
	l-1.9-2.8L51.9,45c-0.4,0.3-1,0.7-1.5,1.1l-1.6,1c-1.1,0.7-2.2,1.3-3.3,1.9c-2.2,1.1-4.6,1.9-6.7,2.1c-0.1,0-0.4,0-0.3,0.1l-0.5,0
	c-0.3,0-0.7,0-1,0c-0.5,0-1.1,0-1.7-0.1c-1.2-0.1-2.5-0.3-3.7-0.7c-1.2-0.3-2.5-0.6-3.7-1c-1.2-0.4-2.5-0.9-3.6-1.4L23,47.5L22.1,48
	c-0.6,0.3-1.3,0.8-2,1.1c-0.7,0.4-1.4,0.7-2.1,1c-1.5,0.6-2.9,1.2-4.5,1.8c-3,1.1-6.2,1.8-9.5,2.2c1.6,0.3,3.3,0.6,5,0.6
	c1.7,0.1,3.4,0,5.1-0.2c1.7-0.2,3.4-0.5,5.1-1c0.8-0.2,1.7-0.5,2.5-0.7c0.4-0.1,0.9-0.3,1.3-0.4c1,0.6,2,1.1,3,1.6
	c1.3,0.6,2.7,1.2,4.1,1.6c1.4,0.5,2.9,0.8,4.4,1.1c0.7,0.1,1.5,0.2,2.4,0.3c0.4,0,0.7,0,1.1,0.1l0.5,0l0.7,0c1.7,0,3.3-0.4,4.8-0.9
	c1.5-0.4,2.9-1,4.3-1.7c1.4-0.6,2.7-1.4,3.9-2.1c0.4-0.3,0.8-0.6,1.3-0.8c0.2,0.2,0.4,0.4,0.6,0.6c1,0.9,2.1,1.7,3.3,2.4
	c0.6,0.3,1.2,0.7,1.8,0.9c0.6,0.3,1.3,0.5,1.9,0.7c0.7,0.2,1.4,0.3,2,0.5c0.7,0.1,1.6,0.2,2.2,0.2l0.9,0l0.6,0l0.5,0
	c0.6-0.1,1.3-0.1,1.9-0.2c1.3-0.2,2.5-0.5,3.8-0.9c1.2-0.4,2.4-1,3.6-1.7c0.6-0.4,1.1-0.7,1.7-1.2c0.2-0.2,0.4-0.4,0.6-0.6
	c1.1,0.3,2.1,0.6,3.2,0.8c1.5,0.4,3.1,0.6,4.7,0.9c1.6,0.2,3.1,0.4,4.7,0.4c1.6,0,3.2-0.1,4.7-0.3c-3.1-0.5-6-1.5-8.8-2.5
	C85.8,51.1,84.4,50.5,83,49.9z"/>
</svg>
