<?xml version="1.0" encoding="utf-8"?>
<!-- Generator: Adobe Illustrator 17.1.0, SVG Export Plug-In . SVG Version: 6.00 Build 0)  -->
<!DOCTYPE svg PUBLIC "-//W3C//DTD SVG 1.1//EN" "http://www.w3.org/Graphics/SVG/1.1/DTD/svg11.dtd">
<svg version="1.1" id="Layer_1" xmlns="http://www.w3.org/2000/svg" xmlns:xlink="http://www.w3.org/1999/xlink" x="0px" y="0px"
	 viewBox="0 0 100 100" enable-background="new 0 0 100 100" xml:space="preserve">
<path fill="#231F20" d="M51.8,70.6V-0.3h-4.3v70.9C27.2,70.9,6.2,76.1,6.2,85.1c0,9.5,22.5,14.6,43.6,14.6c21,0,43.4-5.2,43.4-14.6
	C93.2,76.1,72.2,70.9,51.8,70.6z M47.6,73.8v10.3l-26-6.8C28.3,75.3,37.4,74,47.6,73.8z M49.9,96.6c-11.1,0-20.7-1.3-27.8-3.4
	l27.6-7.1l27.9,7.1C70.6,95.3,61,96.6,49.9,96.6z M51.8,84V73.8c10.6,0.1,19.6,1.5,26.3,3.4L51.8,84z"/>
</svg>
