<?xml version="1.0" encoding="utf-8"?>
<!-- Generator: Adobe Illustrator 17.1.0, SVG Export Plug-In . SVG Version: 6.00 Build 0)  -->
<!DOCTYPE svg PUBLIC "-//W3C//DTD SVG 1.1//EN" "http://www.w3.org/Graphics/SVG/1.1/DTD/svg11.dtd">
<svg version="1.1" id="Layer_1" xmlns="http://www.w3.org/2000/svg" xmlns:xlink="http://www.w3.org/1999/xlink" x="0px" y="0px"
	 viewBox="0 0 56.7 56.7" enable-background="new 0 0 56.7 56.7" xml:space="preserve">
<g>
	<path fill="#231F20" d="M0,37.1c0,0,4.1,7.5,18.8,7.5C30,44.6,33.7,33.8,33,27.7c-0.9-7.4-6.5-10.9-13.5-9.4
		c-7.5,1.6-11.7,14.2,1,16.5c0,0-10.4,0.8-11.5-9.2c-1.3-11.3,8.4-15.5,14.8-15.5c8.8,0,16.9,6.1,16.9,16.7
		c0,12.6-9.8,20.9-21.1,20.9C5.1,47.6,0,37.1,0,37.1z"/>
	<path fill="#231F20" d="M34.5,44.6c0,0,9.6-7.8,8.9-18.2c-0.6-9.5-4.8-14.6-14-17.4c0,0,17.8,2.4,17.8,17.8
		C47.2,39.8,34.5,44.6,34.5,44.6z"/>
	<path fill="#231F20" d="M38.4,45.3c3.8-4.6,7-6.8,9.2-8.4c1.8-1.3,4.2-2.1,6.2-1.3c2.7,1.2,2.9,3.8,2.9,3.8S49.9,36.5,38.4,45.3z"
		/>
	<path fill="#231F20" d="M46.6,35.4c0,0,4.4-4.4,2.2-12.7C48.9,22.7,55.6,29.7,46.6,35.4z"/>
</g>
</svg>
