<?xml version="1.0" encoding="utf-8"?>
<!-- Generator: Adobe Illustrator 17.1.0, SVG Export Plug-In . SVG Version: 6.00 Build 0)  -->
<!DOCTYPE svg PUBLIC "-//W3C//DTD SVG 1.1//EN" "http://www.w3.org/Graphics/SVG/1.1/DTD/svg11.dtd">
<svg version="1.1" id="Layer_1" xmlns="http://www.w3.org/2000/svg" xmlns:xlink="http://www.w3.org/1999/xlink" x="0px" y="0px"
	 viewBox="0 0 100 100" enable-background="new 0 0 100 100" xml:space="preserve">
<g>
	<path fill="#231F20" d="M49.7-0.3c-27.6,0-50,22.4-50,50c0,27.6,22.4,50,50,50c27.6,0,50-22.4,50-50C99.7,22.1,77.3-0.3,49.7-0.3z
		 M49.7,83.5c-9.4,0-16.9-7.7-16.9-16.9c0-6,3.2-11.7,8.5-14.7V24.3c0-4.7,3.8-8.5,8.5-8.5c4.7,0,8.5,3.8,8.5,8.5v27.5
		c5.3,3,8.5,8.7,8.5,14.7C66.6,75.8,59.1,83.5,49.7,83.5z"/>
	<path fill="#231F20" d="M56.1,53.8l-0.6-0.4V24.3c0-3.2-2.6-5.6-5.8-5.6c-3.2,0-5.8,2.6-5.8,5.8v29l-0.8,0.4
		c-4.7,2.5-7.7,7.3-7.7,12.6c0,7.9,6.4,14.3,14.1,14.3c7.7,0,14.3-6.4,14.3-14.3C63.8,61.2,60.8,56.3,56.1,53.8z M49.9,77.2
		c-6,0-10.7-4.9-10.7-10.7c0-5.1,3.6-9.2,8.3-10.3V37.7c0-1.9,1.3-2.6,2.5-2.6c1.1,0,2.5,0.7,2.5,2.6v18.4c4.7,1.1,8.1,5.3,8.1,10.3
		C60.4,72.5,55.7,77.2,49.9,77.2z"/>
</g>
</svg>
