<?xml version="1.0" encoding="utf-8"?>
<!-- Generator: Adobe Illustrator 17.1.0, SVG Export Plug-In . SVG Version: 6.00 Build 0)  -->
<!DOCTYPE svg PUBLIC "-//W3C//DTD SVG 1.1//EN" "http://www.w3.org/Graphics/SVG/1.1/DTD/svg11.dtd">
<svg version="1.1" id="Layer_1" xmlns="http://www.w3.org/2000/svg" xmlns:xlink="http://www.w3.org/1999/xlink" x="0px" y="0px"
	 viewBox="0 0 56.7 56.7" enable-background="new 0 0 56.7 56.7" xml:space="preserve">
<path fill="#231F20" d="M28.3,0C12.7,0,0,12.7,0,28.3C0,44,12.7,56.7,28.3,56.7C44,56.7,56.7,44,56.7,28.3C56.7,12.7,44,0,28.3,0z
	 M28.3,48.1c-7.6,0-13.8-6.1-13.8-13.7c0-3.5,1.4-6.8,3.6-9.2v-0.1c0,0,5.8-6.3,7.4-9.6c1-1.8,2.8-6.9,2.8-6.9s1.4,4.8,2.9,7.1
	c2.1,3.9,6.8,9,6.8,9l0.2,0.2c2.4,2.5,3.9,5.8,3.9,9.5C42.2,41.9,36,48.1,28.3,48.1z"/>
</svg>
