<?xml version="1.0" encoding="utf-8"?>
<!-- Generator: Adobe Illustrator 17.1.0, SVG Export Plug-In . SVG Version: 6.00 Build 0)  -->
<!DOCTYPE svg PUBLIC "-//W3C//DTD SVG 1.1//EN" "http://www.w3.org/Graphics/SVG/1.1/DTD/svg11.dtd">
<svg version="1.1" id="Layer_1" xmlns="http://www.w3.org/2000/svg" xmlns:xlink="http://www.w3.org/1999/xlink" x="0px" y="0px"
	 viewBox="0 0 500 500" enable-background="new 0 0 500 500" xml:space="preserve">
<g>
	<path fill="#231F20" d="M133.8,264.3c37.6-9.7,69.6,11.1,97.4,33.4c33.4,27.8,65.4,61.2,109.9,66.8
		c87.7,12.5,140.5-72.3,158.6-146.1c5.6,86.3-66.8,178.1-160,169.7c-44.5-4.2-79.3-33.4-109.9-64C202,296.3,176.9,261.5,133.8,264.3
		z"/>
	<path fill="#231F20" d="M442.7,109.8c22.3,37.6,27.8,87.7,9.7,128c-15.3,32-47.3,65.4-83.5,73.7c-43.1,8.3-84.9-19.5-119.7-43.1
		c-33.4-23.7-87.7-64-132.2-52.9c-45.9,11.1-65.4,29.2-79.3,58.4c-15.3,32-7,91.8,40.3,96c29.2,2.8,48.7-25,47.3-51.5
		c-1.4-15.3-8.3-29.2-23.7-34.8c-18.1-7-41.7,4.2-43.1,25c0,7,2.8,19.5,11.1,23.7s20.9,1.4,22.3-8.3c-2.8,22.3-32,13.9-37.6-2.8
		s-1.4-33.4,13.9-43.1c34.8-23.7,69.6,5.6,73.7,41.7c4.2,34.8-16.7,64-51.5,69.6c-48.7,7-87.7-39-90.4-80.7
		c-5.6-89,91.8-150.3,167-125.2c44.5,15.3,79.3,48.7,118.3,75.1c34.8,23.7,75.1,39,112.7,12.5C453.8,230.9,469.1,171,442.7,109.8
		C452.4,127.9,451,129.3,442.7,109.8z"/>
	<path fill="#231F20" d="M23.9,201.6c19.5-27.8,41.7-58.4,71-75.1c39-16.7,72.3-9.7,108.5,11.1c39,23.7,71,58.4,112.7,76.5
		c33.4,13.9,64,13.9,93.2-7c-26.4,23.7-54.3,36.2-90.4,25c-44.5-13.9-79.3-50.1-116.9-73.7c-34.8-20.9-66.8-29.2-104.3-16.7
		C67,157.1,46.1,178,23.9,201.6z"/>
</g>
</svg>
